<?xml version="1.0" encoding="UTF-8"?>
<svg version="1.1" xmlns="http://www.w3.org/2000/svg" width="260" height="70">
<path d="M0 0 C3 1 3 1 4.4387207 3.62939453 C5.17481567 5.36358643 5.17481567 5.36358643 5.92578125 7.1328125 C6.19585495 7.7617038 6.46592865 8.39059509 6.7441864 9.0385437 C7.61047864 11.06319321 8.46143016 13.09391181 9.3125 15.125 C9.87339562 16.43920937 10.43523551 17.75301616 10.99804688 19.06640625 C14.35472776 26.93297157 17.56355623 34.8525642 20.69067383 42.81298828 C21.81041721 45.53853931 23.01775538 48.13743003 24.375 50.75 C26 54 26 54 26 57 C25.34 57 24.68 57 24 57 C22.4921875 55.03125 22.4921875 55.03125 20.875 52.5 C20.33617187 51.6646875 19.79734375 50.829375 19.2421875 49.96875 C18.83226562 49.3190625 18.42234375 48.669375 18 48 C17.57589844 48.40992188 17.15179688 48.81984375 16.71484375 49.2421875 C12.01213155 53.56248135 8.1657981 55.95356594 1.546875 56.02734375 C-5.68635369 55.60504447 -9.95172394 53.1513021 -15 48 C-15.61488281 48.97453125 -15.61488281 48.97453125 -16.2421875 49.96875 C-16.78101563 50.8040625 -17.31984375 51.639375 -17.875 52.5 C-18.40867187 53.3353125 -18.94234375 54.170625 -19.4921875 55.03125 C-20.23855469 56.00578125 -20.23855469 56.00578125 -21 57 C-21.66 57 -22.32 57 -23 57 C-22.35399094 52.97543784 -21.08352604 49.5976202 -19.4375 45.875 C-18.89119791 44.62662092 -18.34566639 43.37790444 -17.80078125 42.12890625 C-17.50896973 41.46262207 -17.2171582 40.79633789 -16.91650391 40.10986328 C-15.28667937 36.35788043 -13.70801845 32.58441214 -12.125 28.8125 C-11.45056359 27.20831536 -10.77608379 25.60414896 -10.1015625 24 C-9.7602832 23.18789063 -9.41900391 22.37578125 -9.06738281 21.5390625 C-7.21361052 17.12935713 -5.35660951 12.72101138 -3.5 8.3125 C-2.82290275 6.70443294 -2.14581808 5.09636059 -1.46875 3.48828125 C-0.9840625 2.33714844 -0.499375 1.18601562 0 0 Z M1 21 C-0.56008248 23.1469566 -2.0726459 25.30514602 -3.5625 27.5 C-3.98724609 28.12003906 -4.41199219 28.74007812 -4.84960938 29.37890625 C-5.9027559 30.91721016 -6.95176114 32.4583477 -8 34 C-7.01 34.495 -7.01 34.495 -6 35 C-5.34 34.67 -4.68 34.34 -4 34 C-2.37731009 33.90388248 -0.75052694 33.87017648 0.875 33.875 C1.73867188 33.87242188 2.60234375 33.86984375 3.4921875 33.8671875 C5.80665971 33.98976079 7.78289116 34.35033555 10 35 C8.67726488 31.40241608 7.0805802 28.36262865 4.9375 25.1875 C4.41027344 24.39730469 3.88304687 23.60710938 3.33984375 22.79296875 C2.67662109 21.90544922 2.67662109 21.90544922 2 21 C1.67 21 1.34 21 1 21 Z M-14 44 C-10.8459821 46.71595986 -9.12615036 47.96846241 -5 49 C-5.33 46.03 -5.66 43.06 -6 40 C-9.28158484 40 -11.37881108 42.17656423 -14 44 Z M8 40 C8.185625 40.928125 8.37125 41.85625 8.5625 42.8125 C9 46 9 46 8 49 C11.45925163 47.7508258 14.14693203 46.32472205 17 44 C12.90052696 40.86293483 12.90052696 40.86293483 8 40 Z " fill="#FFFFFF" transform="translate(31,5)"/>
<path d="M0 0 C1.98 0 3.96 0 6 0 C6.33 1.32 6.66 2.64 7 4 C7.33 2.68 7.66 1.36 8 0 C16.33333333 0 24.66666667 0 33 0 C33 2.97 33 5.94 33 9 C32.34 9 31.68 9 31 9 C31 9.66 31 10.32 31 11 C31.99 11 32.98 11 34 11 C34 7.37 34 3.74 34 0 C44 0 54 0 64 0 C65.022623 4.72963136 65 9.17255145 65 14 C62.36 14 59.72 14 57 14 C57 12.35 57 10.7 57 9 C56.67 10.65 56.34 12.3 56 14 C54.35 14 52.7 14 51 14 C51 10.7 51 7.4 51 4 C50.34 4 49.68 4 49 4 C49 7.3 49 10.6 49 14 C47.68 14 46.36 14 45 14 C45 10.7 45 7.4 45 4 C44.34 4 43.68 4 43 4 C43 7.3 43 10.6 43 14 C37.72 14 32.44 14 27 14 C26.67 13.01 26.34 12.02 26 11 C25.67 11.99 25.34 12.98 25 14 C23.02 14 21.04 14 19 14 C18.67 13.34 18.34 12.68 18 12 C17.34 12.66 16.68 13.32 16 14 C14.12060547 14.22705078 14.12060547 14.22705078 11.8671875 14.1953125 C10.65869141 14.18564453 10.65869141 14.18564453 9.42578125 14.17578125 C8.58402344 14.15902344 7.74226563 14.14226563 6.875 14.125 C5.60076172 14.11146484 5.60076172 14.11146484 4.30078125 14.09765625 C2.20040116 14.07405647 0.10016556 14.03818483 -2 14 C-1.85866501 12.22880197 -1.71176792 10.45804713 -1.5625 8.6875 C-1.48128906 7.70136719 -1.40007813 6.71523438 -1.31640625 5.69921875 C-1 3 -1 3 0 0 Z M12 3 C12 5.64 12 8.28 12 11 C12.33 11 12.66 11 13 11 C13 8.36 13 5.72 13 3 C12.67 3 12.34 3 12 3 Z M38 3 C39 5 39 5 39 5 Z M60 9 C61 11 61 11 61 11 Z " fill="#FFFFFF" transform="translate(60,29)"/>
<path d="M0 0 C3.96 0 7.92 0 12 0 C12.33 0.99 12.66 1.98 13 3 C13.33 2.01 13.66 1.02 14 0 C15.98 0 17.96 0 20 0 C20.33 0.99 20.66 1.98 21 3 C21.33 2.01 21.66 1.02 22 0 C25.375 -0.125 25.375 -0.125 29 0 C31 2 31 2 31.23046875 4.56640625 C31.20919922 6.04947266 31.20919922 6.04947266 31.1875 7.5625 C31.18105469 8.55378906 31.17460937 9.54507813 31.16796875 10.56640625 C31 13 31 13 30 14 C27.78144736 14.08783542 25.56011504 14.10694609 23.33984375 14.09765625 C22.34314415 14.09553383 22.34314415 14.09553383 21.3263092 14.09336853 C19.19666101 14.08775518 17.06711661 14.07520054 14.9375 14.0625 C13.49674631 14.05748671 12.05599097 14.05292351 10.61523438 14.04882812 C7.07675042 14.03863076 3.53849187 14.0190583 0 14 C0 9.38 0 4.76 0 0 Z " fill="#FFFFFF" transform="translate(191,29)"/>
<path d="M0 0 C2.31 0 4.62 0 7 0 C7.66 0.99 8.32 1.98 9 3 C9.33 2.01 9.66 1.02 10 0 C11.98 0 13.96 0 16 0 C16.66 2.97 17.32 5.94 18 9 C18 7.3123714 17.97193423 5.62477726 17.9375 3.9375 C18 1 18 1 19 0 C20.99958364 -0.04080783 23.00045254 -0.04254356 25 0 C26.03856327 4.93317552 26 8.80675496 26 14 C17.42 14 8.84 14 0 14 C0 9.38 0 4.76 0 0 Z " fill="#FFFFFF" transform="translate(223,29)"/>
<path d="M0 0 C0.825 0.04125 1.65 0.0825 2.5 0.125 C3.16 0.125 3.82 0.125 4.5 0.125 C6.15 0.125 7.8 0.125 9.5 0.125 C9.5 3.755 9.5 7.385 9.5 11.125 C10.16 11.125 10.82 11.125 11.5 11.125 C11.5 7.495 11.5 3.865 11.5 0.125 C14.47 0.125 17.44 0.125 20.5 0.125 C20.52685938 2.27076637 20.54633088 4.41662645 20.5625 6.5625 C20.57410156 7.75746094 20.58570313 8.95242187 20.59765625 10.18359375 C20.5 13.125 20.5 13.125 19.5 14.125 C17.80441274 14.22432153 16.10474253 14.25580007 14.40625 14.2578125 C13.37628906 14.25910156 12.34632813 14.26039062 11.28515625 14.26171875 C9.65900391 14.25591797 9.65900391 14.25591797 8 14.25 C6.91589844 14.25386719 5.83179688 14.25773437 4.71484375 14.26171875 C3.68488281 14.26042969 2.65492188 14.25914063 1.59375 14.2578125 C0.64177734 14.25668457 -0.31019531 14.25555664 -1.29101562 14.25439453 C-3.5 14.125 -3.5 14.125 -4.5 13.125 C-4.62487758 11.31572719 -4.67570846 9.50103893 -4.6875 7.6875 C-4.70167969 6.69878906 -4.71585938 5.71007813 -4.73046875 4.69140625 C-4.41316548 1.15804608 -3.57466279 0.17873314 0 0 Z M4.5 2.125 C5.5 6.125 5.5 6.125 5.5 6.125 Z M-0.5 3.125 C-0.5 5.765 -0.5 8.405 -0.5 11.125 C-0.17 10.135 0.16 9.145 0.5 8.125 C2.5625 7.4375 2.5625 7.4375 4.5 7.125 C3.18 7.125 1.86 7.125 0.5 7.125 C0.17 5.805 -0.16 4.485 -0.5 3.125 Z M4.5 9.125 C5.5 12.125 5.5 12.125 5.5 12.125 Z " fill="#FFFFFF" transform="translate(157.5,28.875)"/>
<path d="M0 0 C2.31 0 4.62 0 7 0 C9 2 9 2 9.23046875 4.56640625 C9.20919922 6.04947266 9.20919922 6.04947266 9.1875 7.5625 C9.17783203 9.04943359 9.17783203 9.04943359 9.16796875 10.56640625 C9 13 9 13 8 14 C5.32941149 14.14115161 2.67567762 14.04247107 0 14 C0 9.38 0 4.76 0 0 Z M4 3 C5 5 5 5 5 5 Z M4 9 C5 11 5 11 5 11 Z " fill="#FFFFFF" transform="translate(179,29)"/>
<path d="M0 0 C3.625 0.375 3.625 0.375 7 1 C7 5.29 7 9.58 7 14 C4.36 14 1.72 14 -1 14 C-2.23887548 11.52224905 -2.16741669 9.76346293 -2.1875 7 C-2.20167969 6.113125 -2.21585938 5.22625 -2.23046875 4.3125 C-2 2 -2 2 0 0 Z M2 3 C3 5 3 5 3 5 Z M2 9 C3 11 3 11 3 11 Z " fill="#FFFFFF" transform="translate(142,29)"/>
<path d="M0 0 C2.97 0 5.94 0 9 0 C9 4.62 9 9.24 9 14 C6.03 14 3.06 14 0 14 C0 9.38 0 4.76 0 0 Z " fill="#FFFFFF" transform="translate(131,29)"/>
<path d="M0 0 C5.28 0.33 10.56 0.66 16 1 C16.33 2.65 16.66 4.3 17 6 C11.39 6 5.78 6 0 6 C-1 3 -1 3 0 0 Z " fill="#FFFFFF" transform="translate(16,61)"/>
<path d="M0 0 C1.18851563 0.00902344 2.37703125 0.01804688 3.6015625 0.02734375 C4.51679687 0.03894531 5.43203125 0.05054688 6.375 0.0625 C6.75718767 1.71864657 7.08895102 3.38707024 7.375 5.0625 C6.375 6.0625 6.375 6.0625 3.21484375 6.16015625 C1.28318359 6.14275391 1.28318359 6.14275391 -0.6875 6.125 C-1.97785156 6.11597656 -3.26820312 6.10695313 -4.59765625 6.09765625 C-5.59667969 6.08605469 -6.59570312 6.07445313 -7.625 6.0625 C-7.955 4.4125 -8.285 2.7625 -8.625 1.0625 C-5.74084117 -0.37957941 -3.20778472 -0.03144887 0 0 Z " fill="#FFFFFF" transform="translate(42.625,60.9375)"/>
<path d="M0 0 C1.32 0 2.64 0 4 0 C4 4.62 4 9.24 4 14 C2.68 14 1.36 14 0 14 C0 9.38 0 4.76 0 0 Z " fill="#FFFFFF" transform="translate(126,29)"/>
</svg>
