<svg width="2202" height="1097" viewBox="0 0 2202 1097" fill="none" xmlns="http://www.w3.org/2000/svg">
<g opacity="0.06">
<g clip-path="url(#clip0_1290_4307)">
<path d="M1.13281 1.13281H1100.87" stroke="#090909" stroke-miterlimit="10"/>
<path d="M1.13281 48.7266H1100.87" stroke="#090909" stroke-miterlimit="10"/>
<path d="M1.13281 96.3281H1100.87" stroke="#090909" stroke-miterlimit="10"/>
<path d="M1.13281 143.922H1100.87" stroke="#090909" stroke-miterlimit="10"/>
<path d="M1.13281 191.516H1100.87" stroke="#090909" stroke-miterlimit="10"/>
<path d="M1.13281 239.117H1100.87" stroke="#090909" stroke-miterlimit="10"/>
<path d="M1.13281 286.711H1100.87" stroke="#090909" stroke-miterlimit="10"/>
<path d="M1.13281 334.312H1100.87" stroke="#090909" stroke-miterlimit="10"/>
<path d="M1.13281 381.906H1100.87" stroke="#090909" stroke-miterlimit="10"/>
<path d="M1.13281 429.508H1100.87" stroke="#090909" stroke-miterlimit="10"/>
<path d="M1.13281 477.102H1100.87" stroke="#090909" stroke-miterlimit="10"/>
<path d="M1.13281 524.703H1100.87" stroke="#090909" stroke-miterlimit="10"/>
<path d="M1.13281 572.297H1100.87" stroke="#090909" stroke-miterlimit="10"/>
<path d="M1.13281 619.898H1100.87" stroke="#090909" stroke-miterlimit="10"/>
<path d="M1.13281 667.492H1100.87" stroke="#090909" stroke-miterlimit="10"/>
<path d="M1.13281 715.094H1100.87" stroke="#090909" stroke-miterlimit="10"/>
<path d="M1.13281 762.688H1100.87" stroke="#090909" stroke-miterlimit="10"/>
<path d="M1.13281 810.289H1100.87" stroke="#090909" stroke-miterlimit="10"/>
<path d="M1.13281 857.883H1100.87" stroke="#090909" stroke-miterlimit="10"/>
<path d="M1.13281 905.484H1100.87" stroke="#090909" stroke-miterlimit="10"/>
<path d="M1.13281 953.078H1100.87" stroke="#090909" stroke-miterlimit="10"/>
<path d="M1.13281 1000.67H1100.87" stroke="#090909" stroke-miterlimit="10"/>
<path d="M1.13281 1048.27H1100.87" stroke="#090909" stroke-miterlimit="10"/>
<path d="M1.13281 1095.88H1100.87" stroke="#090909" stroke-miterlimit="10"/>
<path d="M240.195 1.13281V1095.87" stroke="#090909" stroke-miterlimit="10"/>
<path d="M192.383 1.13281V1095.87" stroke="#090909" stroke-miterlimit="10"/>
<path d="M144.57 1.13281V1095.87" stroke="#090909" stroke-miterlimit="10"/>
<path d="M96.7578 1.13281V1095.87" stroke="#090909" stroke-miterlimit="10"/>
<path d="M48.9453 1.125V1095.87" stroke="#090909" stroke-miterlimit="10"/>
<path d="M1.13281 1.13281V1095.87" stroke="#090909" stroke-miterlimit="10"/>
<path d="M527.094 1.13281V1095.87" stroke="#090909" stroke-miterlimit="10"/>
<path d="M479.281 1.13281V1095.87" stroke="#090909" stroke-miterlimit="10"/>
<path d="M431.469 1.125V1095.87" stroke="#090909" stroke-miterlimit="10"/>
<path d="M383.656 1.13281V1095.87" stroke="#090909" stroke-miterlimit="10"/>
<path d="M335.844 1.13281V1095.87" stroke="#090909" stroke-miterlimit="10"/>
<path d="M288.031 1.13281V1095.87" stroke="#090909" stroke-miterlimit="10"/>
<path d="M813.992 1.13281V1095.87" stroke="#090909" stroke-miterlimit="10"/>
<path d="M766.156 1.13281V1095.87" stroke="#090909" stroke-miterlimit="10"/>
<path d="M718.344 1.13281V1095.87" stroke="#090909" stroke-miterlimit="10"/>
<path d="M670.531 1.13281V1095.87" stroke="#090909" stroke-miterlimit="10"/>
<path d="M622.719 1.13281V1095.87" stroke="#090909" stroke-miterlimit="10"/>
<path d="M574.906 1.13281V1095.87" stroke="#090909" stroke-miterlimit="10"/>
<path d="M1100.87 1.13281V1095.87" stroke="#090909" stroke-miterlimit="10"/>
<path d="M1053.05 1.13281V1095.87" stroke="#090909" stroke-miterlimit="10"/>
<path d="M1005.24 1.13281V1095.87" stroke="#090909" stroke-miterlimit="10"/>
<path d="M957.43 1.13281V1095.87" stroke="#090909" stroke-miterlimit="10"/>
<path d="M909.617 1.13281V1095.87" stroke="#090909" stroke-miterlimit="10"/>
<path d="M861.805 1.13281V1095.87" stroke="#090909" stroke-miterlimit="10"/>
</g>
<g clip-path="url(#clip1_1290_4307)">
<path d="M1101.13 1.13281H2200.87" stroke="#090909" stroke-miterlimit="10"/>
<path d="M1101.13 48.7266H2200.87" stroke="#090909" stroke-miterlimit="10"/>
<path d="M1101.13 96.3281H2200.87" stroke="#090909" stroke-miterlimit="10"/>
<path d="M1101.13 143.922H2200.87" stroke="#090909" stroke-miterlimit="10"/>
<path d="M1101.13 191.516H2200.87" stroke="#090909" stroke-miterlimit="10"/>
<path d="M1101.13 239.117H2200.87" stroke="#090909" stroke-miterlimit="10"/>
<path d="M1101.13 286.711H2200.87" stroke="#090909" stroke-miterlimit="10"/>
<path d="M1101.13 334.312H2200.87" stroke="#090909" stroke-miterlimit="10"/>
<path d="M1101.13 381.906H2200.87" stroke="#090909" stroke-miterlimit="10"/>
<path d="M1101.13 429.508H2200.87" stroke="#090909" stroke-miterlimit="10"/>
<path d="M1101.13 477.102H2200.87" stroke="#090909" stroke-miterlimit="10"/>
<path d="M1101.13 524.703H2200.87" stroke="#090909" stroke-miterlimit="10"/>
<path d="M1101.13 572.297H2200.87" stroke="#090909" stroke-miterlimit="10"/>
<path d="M1101.13 619.898H2200.87" stroke="#090909" stroke-miterlimit="10"/>
<path d="M1101.13 667.492H2200.87" stroke="#090909" stroke-miterlimit="10"/>
<path d="M1101.13 715.094H2200.87" stroke="#090909" stroke-miterlimit="10"/>
<path d="M1101.13 762.688H2200.87" stroke="#090909" stroke-miterlimit="10"/>
<path d="M1101.13 810.289H2200.87" stroke="#090909" stroke-miterlimit="10"/>
<path d="M1101.13 857.883H2200.87" stroke="#090909" stroke-miterlimit="10"/>
<path d="M1101.13 905.484H2200.87" stroke="#090909" stroke-miterlimit="10"/>
<path d="M1101.13 953.078H2200.87" stroke="#090909" stroke-miterlimit="10"/>
<path d="M1101.13 1000.67H2200.87" stroke="#090909" stroke-miterlimit="10"/>
<path d="M1101.13 1048.27H2200.87" stroke="#090909" stroke-miterlimit="10"/>
<path d="M1101.13 1095.88H2200.87" stroke="#090909" stroke-miterlimit="10"/>
<path d="M1340.2 1.13281V1095.87" stroke="#090909" stroke-miterlimit="10"/>
<path d="M1292.38 1.13281V1095.87" stroke="#090909" stroke-miterlimit="10"/>
<path d="M1244.57 1.13281V1095.87" stroke="#090909" stroke-miterlimit="10"/>
<path d="M1196.76 1.13281V1095.87" stroke="#090909" stroke-miterlimit="10"/>
<path d="M1148.95 1.125V1095.87" stroke="#090909" stroke-miterlimit="10"/>
<path d="M1101.13 1.13281V1095.87" stroke="#090909" stroke-miterlimit="10"/>
<path d="M1627.09 1.13281V1095.87" stroke="#090909" stroke-miterlimit="10"/>
<path d="M1579.28 1.13281V1095.87" stroke="#090909" stroke-miterlimit="10"/>
<path d="M1531.47 1.125V1095.87" stroke="#090909" stroke-miterlimit="10"/>
<path d="M1483.66 1.13281V1095.87" stroke="#090909" stroke-miterlimit="10"/>
<path d="M1435.84 1.13281V1095.87" stroke="#090909" stroke-miterlimit="10"/>
<path d="M1388.03 1.13281V1095.87" stroke="#090909" stroke-miterlimit="10"/>
<path d="M1913.99 1.13281V1095.87" stroke="#090909" stroke-miterlimit="10"/>
<path d="M1866.16 1.13281V1095.87" stroke="#090909" stroke-miterlimit="10"/>
<path d="M1818.34 1.13281V1095.87" stroke="#090909" stroke-miterlimit="10"/>
<path d="M1770.53 1.13281V1095.87" stroke="#090909" stroke-miterlimit="10"/>
<path d="M1722.72 1.13281V1095.87" stroke="#090909" stroke-miterlimit="10"/>
<path d="M1674.91 1.13281V1095.87" stroke="#090909" stroke-miterlimit="10"/>
<path d="M2200.87 1.13281V1095.87" stroke="#090909" stroke-miterlimit="10"/>
<path d="M2153.05 1.13281V1095.87" stroke="#090909" stroke-miterlimit="10"/>
<path d="M2105.24 1.13281V1095.87" stroke="#090909" stroke-miterlimit="10"/>
<path d="M2057.43 1.125V1095.87" stroke="#090909" stroke-miterlimit="10"/>
<path d="M2009.62 1.13281V1095.87" stroke="#090909" stroke-miterlimit="10"/>
<path d="M1961.8 1.13281V1095.87" stroke="#090909" stroke-miterlimit="10"/>
</g>
</g>
<defs>
<clipPath id="clip0_1290_4307">
<rect width="1102" height="1097" fill="white"/>
</clipPath>
<clipPath id="clip1_1290_4307">
<rect width="1102" height="1097" fill="white" transform="translate(1100)"/>
</clipPath>
</defs>
</svg>
