<svg width="1440" height="1240" viewBox="0 0 1440 1240" fill="none" xmlns="http://www.w3.org/2000/svg">
<g clip-path="url(#clip0_1290_4137)">
<path d="M-290 120.256C-173.906 84.2002 -57.8122 48.1443 58.2817 12.0759C68.1187 7.49814 97.1642 -4.43665 131.833 4.47986C147.997 8.64257 160.136 15.9871 167.998 21.7973C226.366 64.9335 289.023 101.908 349.441 142.126C356.863 147.069 370.172 155.746 389.305 159.645C395.141 160.839 406.526 160.953 429.294 161.192C452.553 161.443 464.151 160.814 475.259 159.444C484.127 158.349 490.744 157.029 494.027 156.337C503.31 154.363 510.116 152.237 513.764 151.143C544.91 141.749 675.093 107.227 859.932 58.6706C875.681 53.2628 901.003 47.3017 929.231 54.118C951.861 59.5761 965.95 70.7437 984.24 84.8039C1018.48 111.138 1054.9 134.618 1088.48 161.783C1115.84 183.917 1156.06 215.093 1208.44 250.91C1226.35 264.417 1233.4 279.005 1236.3 286.652C1236.61 287.456 1236.91 288.337 1236.91 288.337C1240.4 298.247 1241.6 306.497 1242.15 311.137C1243.71 324.317 1243.15 334.29 1243.83 355.494C1244.23 368.284 1244.44 374.685 1244.89 376.37C1251.01 398.881 1272.95 412.941 1276.92 415.469C1278.7 416.601 1280.1 417.406 1280.96 417.897C1315.26 437.603 1350.84 424.876 1356.06 422.914C1397.23 407.408 1434.24 394.404 1454.74 380.985" stroke="url(#paint0_linear_1290_4137)" stroke-opacity="0.4" stroke-width="2" stroke-miterlimit="10"/>
<path d="M-290 180.986C-173.906 144.93 -57.8122 108.874 58.2817 72.8181C68.1187 68.2403 97.1642 56.3055 131.833 65.222C147.997 69.3848 160.136 76.7292 167.998 82.5394C226.366 125.676 289.023 162.65 349.441 202.868C356.863 207.811 370.172 216.488 389.305 220.387C395.141 221.582 406.526 221.695 429.294 221.934C452.553 222.185 464.151 221.557 475.259 220.186C484.127 219.092 490.744 217.771 494.027 217.079C503.31 215.105 510.116 212.98 513.764 211.885C544.91 202.491 675.093 167.969 859.932 119.413C875.681 114.005 901.003 108.044 929.231 114.86C951.861 120.318 965.95 131.486 984.24 145.546C1018.48 171.881 1054.9 195.36 1088.48 222.525C1115.84 244.659 1156.06 275.835 1208.44 311.652C1226.35 325.159 1233.4 339.747 1236.3 347.394C1236.61 348.199 1236.91 349.079 1236.91 349.079C1240.4 358.989 1241.6 367.239 1242.15 371.88C1243.71 385.059 1243.15 395.032 1243.83 416.236C1244.23 429.026 1244.44 435.427 1244.89 437.112C1251.01 459.624 1272.95 473.684 1276.92 476.212C1278.7 477.343 1280.1 478.148 1280.96 478.639C1315.26 498.346 1350.84 485.619 1356.06 483.657C1397.23 468.15 1434.24 455.146 1454.74 441.728" stroke="url(#paint1_linear_1290_4137)" stroke-opacity="0.4" stroke-width="2" stroke-miterlimit="10"/>
<path d="M-290 241.986C-173.906 205.93 -57.8122 169.874 58.2817 133.818C68.1187 129.24 97.1642 117.306 131.833 126.222C147.997 130.385 160.136 137.729 167.998 143.539C226.366 186.676 289.023 223.65 349.441 263.868C356.863 268.811 370.172 277.488 389.305 281.387C395.141 282.582 406.526 282.695 429.294 282.934C452.553 283.185 464.151 282.556 475.259 281.186C484.127 280.092 490.744 278.771 494.027 278.079C503.31 276.105 510.116 273.98 513.764 272.885C544.91 263.491 675.093 228.969 859.932 180.413C875.681 175.005 901.003 169.044 929.231 175.86C951.861 181.318 965.95 192.486 984.24 206.546C1018.48 232.881 1054.9 256.36 1088.48 283.525C1115.84 305.659 1156.06 336.835 1208.44 372.652C1226.35 386.159 1233.4 400.747 1236.3 408.394C1236.61 409.199 1236.91 410.079 1236.91 410.079C1240.4 419.989 1241.6 428.239 1242.15 432.88C1243.71 446.059 1243.15 456.032 1243.83 477.236C1244.23 490.026 1244.44 496.427 1244.89 498.112C1251.01 520.624 1272.95 534.684 1276.92 537.212C1278.7 538.343 1280.1 539.148 1280.96 539.639C1315.26 559.346 1350.84 546.618 1356.06 544.657C1397.23 529.15 1434.24 516.146 1454.74 502.728" stroke="url(#paint2_linear_1290_4137)" stroke-opacity="0.4" stroke-width="2" stroke-miterlimit="10"/>
<path d="M-290 302.986C-173.906 266.93 -57.8122 230.874 58.2817 194.818C68.1187 190.24 97.1642 178.306 131.833 187.222C147.997 191.385 160.136 198.729 167.998 204.539C226.366 247.676 289.023 284.65 349.441 324.868C356.863 329.811 370.172 338.488 389.305 342.387C395.141 343.582 406.526 343.695 429.294 343.934C452.553 344.185 464.151 343.557 475.259 342.186C484.127 341.092 490.744 339.771 494.027 339.079C503.31 337.105 510.116 334.98 513.764 333.885C544.91 324.491 675.093 289.969 859.932 241.413C875.681 236.005 901.003 230.044 929.231 236.86C951.861 242.318 965.95 253.486 984.24 267.546C1018.48 293.881 1054.9 317.36 1088.48 344.525C1115.84 366.659 1156.06 397.835 1208.44 433.652C1226.35 447.159 1233.4 461.747 1236.3 469.394C1236.61 470.199 1236.91 471.079 1236.91 471.079C1240.4 480.989 1241.6 489.239 1242.15 493.88C1243.71 507.059 1243.15 517.032 1243.83 538.236C1244.23 551.026 1244.44 557.427 1244.89 559.112C1251.01 581.624 1272.95 595.684 1276.92 598.212C1278.7 599.343 1280.1 600.148 1280.96 600.639C1315.26 620.346 1350.84 607.618 1356.06 605.657C1397.23 590.15 1434.24 577.146 1454.74 563.728" stroke="url(#paint3_linear_1290_4137)" stroke-opacity="0.4" stroke-width="2" stroke-miterlimit="10"/>
<path d="M-290 363.986C-173.906 327.93 -57.8122 291.874 58.2817 255.818C68.1187 251.24 97.1642 239.306 131.833 248.222C147.997 252.385 160.136 259.729 167.998 265.539C226.366 308.676 289.023 345.65 349.441 385.868C356.863 390.811 370.172 399.488 389.305 403.387C395.141 404.582 406.526 404.695 429.294 404.934C452.553 405.185 464.151 404.557 475.259 403.186C484.127 402.092 490.744 400.771 494.027 400.079C503.31 398.105 510.116 395.98 513.764 394.885C544.91 385.491 675.093 350.969 859.932 302.413C875.681 297.005 901.003 291.044 929.231 297.86C951.861 303.318 965.95 314.486 984.24 328.546C1018.48 354.881 1054.9 378.36 1088.48 405.525C1115.84 427.659 1156.06 458.835 1208.44 494.652C1226.35 508.159 1233.4 522.747 1236.3 530.394C1236.61 531.199 1236.91 532.079 1236.91 532.079C1240.4 541.989 1241.6 550.239 1242.15 554.88C1243.71 568.059 1243.15 578.032 1243.83 599.236C1244.23 612.026 1244.44 618.427 1244.89 620.112C1251.01 642.624 1272.95 656.684 1276.92 659.212C1278.7 660.343 1280.1 661.148 1280.96 661.639C1315.26 681.346 1350.84 668.618 1356.06 666.657C1397.23 651.15 1434.24 638.146 1454.74 624.728" stroke="url(#paint4_linear_1290_4137)" stroke-opacity="0.4" stroke-width="2" stroke-miterlimit="10"/>
<path d="M-290 424.986C-173.906 388.93 -57.8122 352.874 58.2817 316.818C68.1187 312.24 97.1642 300.306 131.833 309.222C147.997 313.385 160.136 320.729 167.998 326.539C226.366 369.676 289.023 406.65 349.441 446.868C356.863 451.811 370.172 460.488 389.305 464.387C395.141 465.582 406.526 465.695 429.294 465.934C452.553 466.185 464.151 465.557 475.259 464.186C484.127 463.092 490.744 461.771 494.027 461.079C503.31 459.105 510.116 456.98 513.764 455.885C544.91 446.491 675.093 411.969 859.932 363.413C875.681 358.005 901.003 352.044 929.231 358.86C951.861 364.318 965.95 375.486 984.24 389.546C1018.48 415.881 1054.9 439.36 1088.48 466.525C1115.84 488.659 1156.06 519.835 1208.44 555.652C1226.35 569.159 1233.4 583.747 1236.3 591.394C1236.61 592.199 1236.91 593.079 1236.91 593.079C1240.4 602.989 1241.6 611.239 1242.15 615.88C1243.71 629.059 1243.15 639.032 1243.83 660.236C1244.23 673.026 1244.44 679.427 1244.89 681.112C1251.01 703.624 1272.95 717.684 1276.92 720.211C1278.7 721.343 1280.1 722.148 1280.96 722.639C1315.26 742.346 1350.84 729.619 1356.06 727.657C1397.23 712.15 1434.24 699.146 1454.74 685.728" stroke="url(#paint5_linear_1290_4137)" stroke-opacity="0.4" stroke-width="2" stroke-miterlimit="10"/>
<path d="M-290 485.986C-173.906 449.93 -57.8122 413.874 58.2817 377.818C68.1187 373.24 97.1642 361.306 131.833 370.222C147.997 374.385 160.136 381.729 167.998 387.539C226.366 430.676 289.023 467.65 349.441 507.868C356.863 512.811 370.172 521.488 389.305 525.387C395.141 526.582 406.526 526.695 429.294 526.934C452.553 527.185 464.151 526.557 475.259 525.186C484.127 524.092 490.744 522.771 494.027 522.079C503.31 520.105 510.116 517.98 513.764 516.885C544.91 507.491 675.093 472.969 859.932 424.413C875.681 419.005 901.003 413.044 929.231 419.86C951.861 425.318 965.95 436.486 984.24 450.546C1018.48 476.881 1054.9 500.36 1088.48 527.525C1115.84 549.659 1156.06 580.835 1208.44 616.652C1226.35 630.159 1233.4 644.747 1236.3 652.394C1236.61 653.199 1236.91 654.079 1236.91 654.079C1240.4 663.989 1241.6 672.239 1242.15 676.88C1243.71 690.059 1243.15 700.032 1243.83 721.236C1244.23 734.026 1244.44 740.427 1244.89 742.112C1251.01 764.624 1272.95 778.684 1276.92 781.211C1278.7 782.343 1280.1 783.148 1280.96 783.639C1315.26 803.346 1350.84 790.619 1356.06 788.657C1397.23 773.15 1434.24 760.146 1454.74 746.728" stroke="url(#paint6_linear_1290_4137)" stroke-opacity="0.4" stroke-width="2" stroke-miterlimit="10"/>
<path d="M-290 546.986C-173.906 510.93 -57.8122 474.874 58.2817 438.818C68.1187 434.24 97.1642 422.306 131.833 431.222C147.997 435.385 160.136 442.729 167.998 448.539C226.366 491.676 289.023 528.65 349.441 568.868C356.863 573.811 370.172 582.488 389.305 586.387C395.141 587.582 406.526 587.695 429.294 587.934C452.553 588.185 464.151 587.557 475.259 586.186C484.127 585.092 490.744 583.771 494.027 583.079C503.31 581.105 510.116 578.98 513.764 577.885C544.91 568.491 675.093 533.969 859.932 485.413C875.681 480.005 901.003 474.044 929.231 480.86C951.861 486.318 965.95 497.486 984.24 511.546C1018.48 537.881 1054.9 561.36 1088.48 588.525C1115.84 610.659 1156.06 641.835 1208.44 677.652C1226.35 691.159 1233.4 705.747 1236.3 713.394C1236.61 714.199 1236.91 715.079 1236.91 715.079C1240.4 724.989 1241.6 733.239 1242.15 737.88C1243.71 751.059 1243.15 761.032 1243.83 782.236C1244.23 795.026 1244.44 801.427 1244.89 803.112C1251.01 825.624 1272.95 839.684 1276.92 842.211C1278.7 843.343 1280.1 844.148 1280.96 844.639C1315.26 864.346 1350.84 851.619 1356.06 849.657C1397.23 834.15 1434.24 821.146 1454.74 807.728" stroke="url(#paint7_linear_1290_4137)" stroke-opacity="0.4" stroke-width="2" stroke-miterlimit="10"/>
<path d="M-290 607.986C-173.906 571.93 -57.8122 535.874 58.2817 499.818C68.1187 495.24 97.1642 483.306 131.833 492.222C147.997 496.385 160.136 503.729 167.998 509.539C226.366 552.676 289.023 589.65 349.441 629.868C356.863 634.811 370.172 643.488 389.305 647.387C395.141 648.582 406.526 648.695 429.294 648.934C452.553 649.185 464.151 648.557 475.259 647.186C484.127 646.092 490.744 644.771 494.027 644.079C503.31 642.105 510.116 639.98 513.764 638.885C544.91 629.491 675.093 594.969 859.932 546.413C875.681 541.005 901.003 535.044 929.231 541.86C951.861 547.318 965.95 558.486 984.24 572.546C1018.48 598.881 1054.9 622.36 1088.48 649.525C1115.84 671.659 1156.06 702.835 1208.44 738.652C1226.35 752.159 1233.4 766.747 1236.3 774.394C1236.61 775.199 1236.91 776.079 1236.91 776.079C1240.4 785.989 1241.6 794.239 1242.15 798.88C1243.71 812.059 1243.15 822.032 1243.83 843.236C1244.23 856.026 1244.44 862.427 1244.89 864.112C1251.01 886.624 1272.95 900.684 1276.92 903.211C1278.7 904.343 1280.1 905.148 1280.96 905.639C1315.26 925.346 1350.84 912.619 1356.06 910.657C1397.23 895.15 1434.24 882.146 1454.74 868.728" stroke="url(#paint8_linear_1290_4137)" stroke-opacity="0.4" stroke-width="2" stroke-miterlimit="10"/>
<path d="M-290 668.986C-173.906 632.93 -57.8122 596.874 58.2817 560.818C68.1187 556.24 97.1642 544.306 131.833 553.222C147.997 557.385 160.136 564.729 167.998 570.539C226.366 613.676 289.023 650.65 349.441 690.868C356.863 695.811 370.172 704.488 389.305 708.387C395.141 709.582 406.526 709.695 429.294 709.934C452.553 710.185 464.151 709.557 475.259 708.186C484.127 707.092 490.744 705.771 494.027 705.079C503.31 703.105 510.116 700.98 513.764 699.885C544.91 690.491 675.093 655.969 859.932 607.413C875.681 602.005 901.003 596.044 929.231 602.86C951.861 608.318 965.95 619.486 984.24 633.546C1018.48 659.881 1054.9 683.36 1088.48 710.525C1115.84 732.659 1156.06 763.835 1208.44 799.652C1226.35 813.159 1233.4 827.747 1236.3 835.394C1236.61 836.199 1236.91 837.079 1236.91 837.079C1240.4 846.989 1241.6 855.239 1242.15 859.88C1243.71 873.059 1243.15 883.032 1243.83 904.236C1244.23 917.026 1244.44 923.427 1244.89 925.112C1251.01 947.624 1272.95 961.684 1276.92 964.211C1278.7 965.343 1280.1 966.148 1280.96 966.639C1315.26 986.346 1350.84 973.619 1356.06 971.657C1397.23 956.15 1434.24 943.146 1454.74 929.728" stroke="url(#paint9_linear_1290_4137)" stroke-opacity="0.4" stroke-width="2" stroke-miterlimit="10"/>
<path d="M-290 729.986C-173.906 693.93 -57.8122 657.874 58.2817 621.818C68.1187 617.24 97.1642 605.306 131.833 614.222C147.997 618.385 160.136 625.729 167.998 631.539C226.366 674.676 289.023 711.65 349.441 751.868C356.863 756.811 370.172 765.488 389.305 769.387C395.141 770.582 406.526 770.695 429.294 770.934C452.553 771.185 464.151 770.557 475.259 769.186C484.127 768.092 490.744 766.771 494.027 766.079C503.31 764.105 510.116 761.98 513.764 760.885C544.91 751.491 675.093 716.969 859.932 668.413C875.681 663.005 901.003 657.044 929.231 663.86C951.861 669.318 965.95 680.486 984.24 694.546C1018.48 720.881 1054.9 744.36 1088.48 771.525C1115.84 793.659 1156.06 824.835 1208.44 860.652C1226.35 874.159 1233.4 888.747 1236.3 896.394C1236.61 897.199 1236.91 898.079 1236.91 898.079C1240.4 907.989 1241.6 916.239 1242.15 920.88C1243.71 934.059 1243.15 944.032 1243.83 965.236C1244.23 978.026 1244.44 984.427 1244.89 986.112C1251.01 1008.62 1272.95 1022.68 1276.92 1025.21C1278.7 1026.34 1280.1 1027.15 1280.96 1027.64C1315.26 1047.35 1350.84 1034.62 1356.06 1032.66C1397.23 1017.15 1434.24 1004.15 1454.74 990.728" stroke="url(#paint10_linear_1290_4137)" stroke-opacity="0.4" stroke-width="2" stroke-miterlimit="10"/>
<path d="M-290 790.986C-173.906 754.93 -57.8122 718.874 58.2817 682.818C68.1187 678.24 97.1642 666.306 131.833 675.222C147.997 679.385 160.136 686.729 167.998 692.539C226.366 735.676 289.023 772.65 349.441 812.868C356.863 817.811 370.172 826.488 389.305 830.387C395.141 831.582 406.526 831.695 429.294 831.934C452.553 832.185 464.151 831.557 475.259 830.186C484.127 829.092 490.744 827.771 494.027 827.079C503.31 825.105 510.116 822.98 513.764 821.885C544.91 812.491 675.093 777.969 859.932 729.413C875.681 724.005 901.003 718.044 929.231 724.86C951.861 730.318 965.95 741.486 984.24 755.546C1018.48 781.881 1054.9 805.36 1088.48 832.525C1115.84 854.659 1156.06 885.835 1208.44 921.652C1226.35 935.159 1233.4 949.747 1236.3 957.394C1236.61 958.199 1236.91 959.079 1236.91 959.079C1240.4 968.989 1241.6 977.239 1242.15 981.88C1243.71 995.059 1243.15 1005.03 1243.83 1026.24C1244.23 1039.03 1244.44 1045.43 1244.89 1047.11C1251.01 1069.62 1272.95 1083.68 1276.92 1086.21C1278.7 1087.34 1280.1 1088.15 1280.96 1088.64C1315.26 1108.35 1350.84 1095.62 1356.06 1093.66C1397.23 1078.15 1434.24 1065.15 1454.74 1051.73" stroke="url(#paint11_linear_1290_4137)" stroke-opacity="0.4" stroke-width="2" stroke-miterlimit="10"/>
<path d="M-290 851.986C-173.906 815.93 -57.8122 779.874 58.2817 743.818C68.1187 739.24 97.1642 727.306 131.833 736.222C147.997 740.385 160.136 747.729 167.998 753.539C226.366 796.676 289.023 833.65 349.441 873.868C356.863 878.811 370.172 887.488 389.305 891.387C395.141 892.582 406.526 892.695 429.294 892.934C452.553 893.185 464.151 892.557 475.259 891.186C484.127 890.092 490.744 888.771 494.027 888.079C503.31 886.105 510.116 883.98 513.764 882.885C544.91 873.491 675.093 838.969 859.932 790.413C875.681 785.005 901.003 779.044 929.231 785.86C951.861 791.318 965.95 802.486 984.24 816.546C1018.48 842.881 1054.9 866.36 1088.48 893.525C1115.84 915.659 1156.06 946.835 1208.44 982.652C1226.35 996.159 1233.4 1010.75 1236.3 1018.39C1236.61 1019.2 1236.91 1020.08 1236.91 1020.08C1240.4 1029.99 1241.6 1038.24 1242.15 1042.88C1243.71 1056.06 1243.15 1066.03 1243.83 1087.24C1244.23 1100.03 1244.44 1106.43 1244.89 1108.11C1251.01 1130.62 1272.95 1144.68 1276.92 1147.21C1278.7 1148.34 1280.1 1149.15 1280.96 1149.64C1315.26 1169.35 1350.84 1156.62 1356.06 1154.66C1397.23 1139.15 1434.24 1126.15 1454.74 1112.73" stroke="url(#paint12_linear_1290_4137)" stroke-opacity="0.4" stroke-width="2" stroke-miterlimit="10"/>
<path d="M-290 912.986C-173.906 876.93 -57.8122 840.874 58.2817 804.818C68.1187 800.24 97.1642 788.306 131.833 797.222C147.997 801.385 160.136 808.729 167.998 814.539C226.366 857.676 289.023 894.65 349.441 934.868C356.863 939.811 370.172 948.488 389.305 952.387C395.141 953.582 406.526 953.695 429.294 953.934C452.553 954.185 464.151 953.557 475.259 952.186C484.127 951.092 490.744 949.771 494.027 949.079C503.31 947.105 510.116 944.98 513.764 943.885C544.91 934.491 675.093 899.969 859.932 851.413C875.681 846.005 901.003 840.044 929.231 846.86C951.861 852.318 965.95 863.486 984.24 877.546C1018.48 903.881 1054.9 927.36 1088.48 954.525C1115.84 976.659 1156.06 1007.84 1208.44 1043.65C1226.35 1057.16 1233.4 1071.75 1236.3 1079.39C1236.61 1080.2 1236.91 1081.08 1236.91 1081.08C1240.4 1090.99 1241.6 1099.24 1242.15 1103.88C1243.71 1117.06 1243.15 1127.03 1243.83 1148.24C1244.23 1161.03 1244.44 1167.43 1244.89 1169.11C1251.01 1191.62 1272.95 1205.68 1276.92 1208.21C1278.7 1209.34 1280.1 1210.15 1280.96 1210.64C1315.26 1230.35 1350.84 1217.62 1356.06 1215.66C1397.23 1200.15 1434.24 1187.15 1454.74 1173.73" stroke="url(#paint13_linear_1290_4137)" stroke-opacity="0.4" stroke-width="2" stroke-miterlimit="10"/>
</g>
<defs>
<linearGradient id="paint0_linear_1290_4137" x1="582.371" y1="1.25781" x2="582.371" y2="428.764" gradientUnits="userSpaceOnUse">
<stop stop-color="#141414"/>
<stop stop-color="#141414"/>
<stop offset="0.02" stop-color="#141414"/>
<stop offset="0.255" stop-color="#5E5E5E"/>
<stop offset="0.51" stop-color="#292929"/>
<stop offset="0.715" stop-color="#5E5E5E"/>
<stop offset="0.87" stop-color="#292929"/>
</linearGradient>
<linearGradient id="paint1_linear_1290_4137" x1="582.371" y1="62" x2="582.371" y2="489.506" gradientUnits="userSpaceOnUse">
<stop stop-color="#141414"/>
<stop stop-color="#141414"/>
<stop offset="0.02" stop-color="#141414"/>
<stop offset="0.255" stop-color="#5E5E5E"/>
<stop offset="0.51" stop-color="#292929"/>
<stop offset="0.715" stop-color="#5E5E5E"/>
<stop offset="0.87" stop-color="#292929"/>
</linearGradient>
<linearGradient id="paint2_linear_1290_4137" x1="582.371" y1="123" x2="582.371" y2="550.506" gradientUnits="userSpaceOnUse">
<stop stop-color="#141414"/>
<stop stop-color="#141414"/>
<stop offset="0.02" stop-color="#141414"/>
<stop offset="0.255" stop-color="#5E5E5E"/>
<stop offset="0.51" stop-color="#292929"/>
<stop offset="0.715" stop-color="#5E5E5E"/>
<stop offset="0.87" stop-color="#292929"/>
</linearGradient>
<linearGradient id="paint3_linear_1290_4137" x1="582.371" y1="184" x2="582.371" y2="611.506" gradientUnits="userSpaceOnUse">
<stop stop-color="#141414"/>
<stop stop-color="#141414"/>
<stop offset="0.02" stop-color="#141414"/>
<stop offset="0.255" stop-color="#5E5E5E"/>
<stop offset="0.51" stop-color="#292929"/>
<stop offset="0.715" stop-color="#5E5E5E"/>
<stop offset="0.87" stop-color="#292929"/>
</linearGradient>
<linearGradient id="paint4_linear_1290_4137" x1="582.371" y1="245" x2="582.371" y2="672.506" gradientUnits="userSpaceOnUse">
<stop stop-color="#141414"/>
<stop stop-color="#141414"/>
<stop offset="0.02" stop-color="#141414"/>
<stop offset="0.255" stop-color="#5E5E5E"/>
<stop offset="0.51" stop-color="#292929"/>
<stop offset="0.715" stop-color="#5E5E5E"/>
<stop offset="0.87" stop-color="#292929"/>
</linearGradient>
<linearGradient id="paint5_linear_1290_4137" x1="582.371" y1="306" x2="582.371" y2="733.506" gradientUnits="userSpaceOnUse">
<stop stop-color="#141414"/>
<stop stop-color="#141414"/>
<stop offset="0.02" stop-color="#141414"/>
<stop offset="0.255" stop-color="#5E5E5E"/>
<stop offset="0.51" stop-color="#292929"/>
<stop offset="0.715" stop-color="#5E5E5E"/>
<stop offset="0.87" stop-color="#292929"/>
</linearGradient>
<linearGradient id="paint6_linear_1290_4137" x1="582.371" y1="367" x2="582.371" y2="794.506" gradientUnits="userSpaceOnUse">
<stop stop-color="#141414"/>
<stop stop-color="#141414"/>
<stop offset="0.02" stop-color="#141414"/>
<stop offset="0.255" stop-color="#5E5E5E"/>
<stop offset="0.51" stop-color="#292929"/>
<stop offset="0.715" stop-color="#5E5E5E"/>
<stop offset="0.87" stop-color="#292929"/>
</linearGradient>
<linearGradient id="paint7_linear_1290_4137" x1="582.371" y1="428" x2="582.371" y2="855.506" gradientUnits="userSpaceOnUse">
<stop stop-color="#141414"/>
<stop stop-color="#141414"/>
<stop offset="0.02" stop-color="#141414"/>
<stop offset="0.255" stop-color="#5E5E5E"/>
<stop offset="0.51" stop-color="#292929"/>
<stop offset="0.715" stop-color="#5E5E5E"/>
<stop offset="0.87" stop-color="#292929"/>
</linearGradient>
<linearGradient id="paint8_linear_1290_4137" x1="582.371" y1="489" x2="582.371" y2="916.506" gradientUnits="userSpaceOnUse">
<stop stop-color="#141414"/>
<stop stop-color="#141414"/>
<stop offset="0.02" stop-color="#141414"/>
<stop offset="0.255" stop-color="#5E5E5E"/>
<stop offset="0.51" stop-color="#292929"/>
<stop offset="0.715" stop-color="#5E5E5E"/>
<stop offset="0.87" stop-color="#292929"/>
</linearGradient>
<linearGradient id="paint9_linear_1290_4137" x1="582.371" y1="550" x2="582.371" y2="977.506" gradientUnits="userSpaceOnUse">
<stop stop-color="#141414"/>
<stop stop-color="#141414"/>
<stop offset="0.02" stop-color="#141414"/>
<stop offset="0.255" stop-color="#5E5E5E"/>
<stop offset="0.51" stop-color="#292929"/>
<stop offset="0.715" stop-color="#5E5E5E"/>
<stop offset="0.87" stop-color="#292929"/>
</linearGradient>
<linearGradient id="paint10_linear_1290_4137" x1="582.371" y1="611" x2="582.371" y2="1038.51" gradientUnits="userSpaceOnUse">
<stop stop-color="#141414"/>
<stop stop-color="#141414"/>
<stop offset="0.02" stop-color="#141414"/>
<stop offset="0.255" stop-color="#5E5E5E"/>
<stop offset="0.51" stop-color="#292929"/>
<stop offset="0.715" stop-color="#5E5E5E"/>
<stop offset="0.87" stop-color="#292929"/>
</linearGradient>
<linearGradient id="paint11_linear_1290_4137" x1="582.371" y1="672" x2="582.371" y2="1099.51" gradientUnits="userSpaceOnUse">
<stop stop-color="#141414"/>
<stop stop-color="#141414"/>
<stop offset="0.02" stop-color="#141414"/>
<stop offset="0.255" stop-color="#5E5E5E"/>
<stop offset="0.51" stop-color="#292929"/>
<stop offset="0.715" stop-color="#5E5E5E"/>
<stop offset="0.87" stop-color="#292929"/>
</linearGradient>
<linearGradient id="paint12_linear_1290_4137" x1="582.371" y1="733" x2="582.371" y2="1160.51" gradientUnits="userSpaceOnUse">
<stop stop-color="#141414"/>
<stop stop-color="#141414"/>
<stop offset="0.02" stop-color="#141414"/>
<stop offset="0.255" stop-color="#5E5E5E"/>
<stop offset="0.51" stop-color="#292929"/>
<stop offset="0.715" stop-color="#5E5E5E"/>
<stop offset="0.87" stop-color="#292929"/>
</linearGradient>
<linearGradient id="paint13_linear_1290_4137" x1="582.371" y1="794" x2="582.371" y2="1221.51" gradientUnits="userSpaceOnUse">
<stop stop-color="#141414"/>
<stop stop-color="#141414"/>
<stop offset="0.02" stop-color="#141414"/>
<stop offset="0.255" stop-color="#5E5E5E"/>
<stop offset="0.51" stop-color="#292929"/>
<stop offset="0.715" stop-color="#5E5E5E"/>
<stop offset="0.87" stop-color="#292929"/>
</linearGradient>
<clipPath id="clip0_1290_4137">
<rect width="1746" height="1240" fill="white" transform="translate(-277)"/>
</clipPath>
</defs>
</svg>
