<svg width="1775" height="574" viewBox="0 0 1775 574" fill="none" xmlns="http://www.w3.org/2000/svg">
<path d="M7.565 364.76C22.7757 370.712 39.1437 373.688 56.669 373.688C77.1703 373.688 93.0423 366.91 104.285 353.352C115.858 339.464 121.645 320.451 121.645 296.312V93.4484H198.525V296.312C198.525 344.259 186.621 381.624 162.813 408.408C139.005 435.192 105.773 448.584 63.117 448.584C39.6397 448.584 19.469 445.774 2.605 440.152L7.565 364.76ZM393.275 448.584C341.029 448.584 300.357 432.878 271.259 401.464C242.16 370.051 227.611 325.742 227.611 268.536C227.611 230.51 234.059 197.774 246.955 170.328C260.181 142.883 279.195 121.886 303.995 107.336C329.125 92.7871 358.885 85.5124 393.275 85.5124C427.664 85.5124 457.259 92.7871 482.059 107.336C506.859 121.886 525.707 142.883 538.603 170.328C551.829 197.774 558.443 230.51 558.443 268.536C558.443 325.742 543.893 370.051 514.795 401.464C486.027 432.878 445.52 448.584 393.275 448.584ZM306.475 268.536C306.475 302.264 314.08 328.718 329.291 347.896C344.832 366.744 366.16 376.168 393.275 376.168C420.389 376.168 441.552 366.744 456.763 347.896C472.304 328.718 480.075 302.264 480.075 268.536C480.075 234.478 472.469 208.024 457.259 189.176C442.048 170.328 420.72 160.904 393.275 160.904C365.829 160.904 344.501 170.328 329.291 189.176C314.08 208.024 306.475 234.478 306.475 268.536ZM675.352 93.4484V440.648H598.472V93.4484H675.352ZM876.092 93.4484L967.356 433.208H968.844V93.4484H1041.26V440.648H892.956L801.196 98.9044H799.708V440.648H728.284V93.4484H876.092ZM1481.93 293.336C1481.93 325.08 1475.82 352.691 1463.58 376.168C1451.68 399.315 1434.48 417.171 1412 429.736C1389.51 442.302 1363.06 448.584 1332.64 448.584C1301.88 448.584 1275.27 442.302 1252.78 429.736C1230.3 417.171 1213.1 399.315 1201.2 376.168C1189.29 352.691 1183.34 325.08 1183.34 293.336V93.4484H1260.22V293.336C1260.22 321.112 1266.67 343.102 1279.56 359.304C1292.46 375.176 1310.15 383.112 1332.64 383.112C1355.12 383.112 1372.81 375.176 1385.71 359.304C1398.6 343.102 1405.05 321.112 1405.05 293.336V93.4484H1481.93V293.336ZM1740.36 184.216C1727.79 177.272 1712.08 171.486 1693.24 166.856C1674.39 162.227 1655.38 159.912 1636.2 159.912C1606.44 159.912 1591.56 169.336 1591.56 188.184C1591.56 197.774 1596.35 205.71 1605.94 211.992C1615.86 217.944 1632.56 224.723 1656.04 232.328C1683.48 241.587 1705.31 251.011 1721.51 260.6C1737.71 270.19 1749.78 281.763 1757.72 295.32C1765.65 308.547 1769.62 325.08 1769.62 344.92C1769.62 368.067 1763.34 387.411 1750.77 402.952C1738.54 418.494 1722 430.067 1701.17 437.672C1680.67 444.947 1658.19 448.584 1633.72 448.584C1608.26 448.584 1584.61 446.104 1562.79 441.144C1541.3 436.184 1523.11 429.406 1508.23 420.808L1512.2 341.448C1527.74 349.715 1546.42 357.32 1568.24 364.264C1590.4 370.878 1612.06 374.184 1633.22 374.184C1652.73 374.184 1667.11 371.704 1676.37 366.744C1685.96 361.454 1690.76 354.179 1690.76 344.92C1690.76 334.339 1685.47 325.907 1674.88 319.624C1664.63 313.342 1646.45 306.067 1620.32 297.8C1595.19 289.864 1574.86 281.432 1559.32 272.504C1544.11 263.246 1532.53 252.003 1524.6 238.776C1516.66 225.55 1512.69 209.016 1512.69 189.176C1512.69 156.11 1523.77 130.648 1545.92 112.792C1568.08 94.6058 1599.33 85.5124 1639.67 85.5124C1680.67 85.5124 1715.89 93.2831 1745.32 108.824L1740.36 184.216Z" fill="black"/>
<g filter="url(#filter0_d_1448_836)">
<ellipse cx="380.093" cy="480.854" rx="151.777" ry="67.2903" transform="rotate(-9.89858 380.093 480.854)" fill="white"/>
</g>
<path d="M295.438 512.214L290.969 486.606L297.92 485.393L310.236 497.644L307.797 483.67L314.748 482.457L319.217 508.065L312.266 509.278L299.95 497.027L302.389 511.001L295.438 512.214ZM322.875 507.426L318.406 481.819L339.624 478.116L340.709 484.335L326.442 486.825L327.049 490.3L339.853 488.066L340.938 494.285L328.134 496.519L328.74 499.994L343.373 497.441L344.459 503.66L322.875 507.426ZM353.236 502.128L349.852 482.74L342.536 484.016L341.45 477.797L363.034 474.031L364.119 480.25L356.803 481.527L360.186 500.915L353.236 502.128ZM385.931 470.035L392.088 482.419L393.65 468.688L401.077 467.392L397.973 494.322L390.546 495.618L384.426 483.228L382.827 496.964L375.401 498.26L363.36 473.974L370.786 472.678L376.943 485.061L378.505 471.331L385.931 470.035ZM403.684 480.131C402.152 471.351 405.635 466.032 414.524 464.48C423.414 462.929 428.492 466.755 430.024 475.535C431.556 484.315 428.074 489.634 419.184 491.186C410.295 492.737 405.217 488.911 403.684 480.131ZM410.818 478.886C411.622 483.496 413.97 485.499 418.067 484.784C422.164 484.069 423.695 481.389 422.89 476.78C422.086 472.17 419.739 470.167 415.641 470.882C411.178 471.661 410.014 474.277 410.818 478.886ZM435.195 487.826L430.726 462.218L442.433 460.176C450.92 458.695 454.114 461.228 455.122 467.008C455.908 471.508 454.79 474.606 450.286 476.447L458.059 483.836L449.645 485.305L442.278 478.297L440.741 478.565L442.146 486.613L435.195 487.826ZM439.656 472.346L444.156 471.561C447.997 470.891 448.283 469.936 447.989 468.253C447.695 466.57 447.103 465.769 443.262 466.439L438.762 467.225L439.656 472.346ZM460.988 483.325L456.52 457.717L463.471 456.504L467.939 482.112L460.988 483.325ZM474.119 467.84L485.865 478.984L477.451 480.453L465.705 469.308L472.982 454.845L481.396 453.376L474.119 467.84Z" fill="black"/>
<g filter="url(#filter1_d_1448_836)">
<ellipse cx="1196.06" cy="94.9461" rx="151.777" ry="67.2903" transform="rotate(10.9712 1196.06 94.9461)" fill="white"/>
</g>
<path d="M1101.92 66.856L1103.26 80.6202L1109.61 68.3472L1117.01 69.7819L1104.52 93.8386L1097.12 92.4039L1095.81 78.6468L1089.42 90.9127L1082.02 89.478L1079.42 62.4954L1086.82 63.9301L1088.17 77.6943L1094.52 65.4213L1101.92 66.856ZM1114.91 82.6139C1116.61 73.8643 1121.75 70.1342 1130.61 71.8515C1139.47 73.5689 1142.85 78.9529 1141.16 87.7025C1139.46 96.4521 1134.31 100.182 1125.45 98.4649C1116.6 96.7475 1113.21 91.3635 1114.91 82.6139ZM1122.02 83.9921C1121.13 88.5856 1122.61 91.2934 1126.69 92.085C1130.77 92.8766 1133.16 90.9179 1134.05 86.3244C1134.94 81.7308 1133.46 79.023 1129.38 78.2315C1124.93 77.3692 1122.91 79.3986 1122.02 83.9921ZM1141.61 101.03L1146.56 75.51L1158.22 77.7716C1166.68 79.4113 1168.76 82.9166 1167.65 88.6768C1166.78 93.161 1164.63 95.6572 1159.77 95.7733L1164.4 105.447L1156.01 103.821L1151.62 94.6489L1150.09 94.352L1148.54 102.373L1141.61 101.03ZM1151.29 88.1544L1155.78 89.0237C1159.61 89.7658 1160.21 88.9756 1160.54 87.2986C1160.86 85.6216 1160.6 84.6619 1156.77 83.9198L1152.28 83.0505L1151.29 88.1544ZM1167.32 106.013L1172.26 80.4931L1179.19 81.836L1174.24 107.356L1167.32 106.013ZM1185.1 96.2213L1192.11 110.819L1183.72 109.193L1176.72 94.5958L1188.67 83.6735L1197.05 85.299L1185.1 96.2213ZM1204.9 103.653C1199.23 101.684 1195.59 98.9739 1196.65 93.5054C1197.84 87.3807 1201.95 85.6813 1210.12 87.2644C1217.23 88.6426 1221.16 91.751 1219.92 98.1674L1213.36 96.8952C1213.75 94.8537 1211.18 94.0896 1208.23 93.5171C1205.53 92.9941 1204.08 93.243 1203.87 94.3367C1203.66 95.4304 1204.95 95.7578 1209.6 97.3398C1215.7 99.4304 1219.49 102.168 1218.36 107.965C1217.24 113.762 1213.05 115.447 1204.78 113.842C1197.56 112.443 1193.55 109.321 1194.79 102.904L1201.36 104.176C1200.96 106.218 1203.64 107.003 1206.71 107.597C1209.51 108.141 1210.96 108.081 1211.18 106.951C1211.46 105.53 1208.3 104.842 1204.9 103.653ZM1219.79 116.186L1224.74 90.6664L1231.67 92.0093L1229.79 101.67L1239.64 103.578L1241.51 93.9175L1248.44 95.2603L1243.49 120.78L1236.56 119.437L1238.44 109.776L1228.59 107.868L1226.72 117.529L1219.79 116.186ZM1248.88 108.586C1250.58 99.8359 1255.73 96.1057 1264.58 97.8231C1273.44 99.5405 1276.83 104.925 1275.13 113.674C1273.43 122.424 1268.28 126.154 1259.43 124.437C1250.57 122.719 1247.18 117.335 1248.88 108.586ZM1255.99 109.964C1255.1 114.557 1256.58 117.265 1260.66 118.057C1264.75 118.848 1267.13 116.889 1268.02 112.296C1268.91 107.702 1267.43 104.995 1263.35 104.203C1258.9 103.341 1256.88 105.37 1255.99 109.964ZM1275.58 127.001L1280.53 101.482L1292.2 103.743C1300.65 105.383 1302.71 108.998 1301.55 115.013C1300.38 121.028 1297.12 123.611 1288.66 121.972L1283.92 121.053L1282.51 128.344L1275.58 127.001ZM1285.12 114.855L1289.61 115.724C1293.44 116.467 1294.06 115.567 1294.44 113.635C1294.81 111.703 1294.57 110.633 1290.74 109.891L1286.25 109.022L1285.12 114.855ZM1312.24 124.462C1306.57 122.493 1302.93 119.783 1303.99 114.314C1305.18 108.19 1309.29 106.49 1317.46 108.073C1324.57 109.452 1328.51 112.56 1327.26 118.976L1320.7 117.704C1321.09 115.663 1318.52 114.899 1315.57 114.326C1312.87 113.803 1311.42 114.052 1311.21 115.146C1311 116.239 1312.3 116.567 1316.94 118.149C1323.04 120.239 1326.83 122.977 1325.7 128.774C1324.58 134.571 1320.39 136.256 1312.12 134.651C1304.9 133.252 1300.89 130.13 1302.13 123.713L1308.7 124.985C1308.3 127.027 1310.99 127.812 1314.05 128.406C1316.85 128.95 1318.3 128.891 1318.52 127.76C1318.8 126.339 1315.64 125.651 1312.24 124.462Z" fill="black"/>
<defs>
<filter id="filter0_d_1448_836" x="230.125" y="409.594" width="299.938" height="150.516" filterUnits="userSpaceOnUse" color-interpolation-filters="sRGB">
<feFlood flood-opacity="0" result="BackgroundImageFix"/>
<feColorMatrix in="SourceAlpha" type="matrix" values="0 0 0 0 0 0 0 0 0 0 0 0 0 0 0 0 0 0 127 0" result="hardAlpha"/>
<feOffset dy="8"/>
<feComposite in2="hardAlpha" operator="out"/>
<feColorMatrix type="matrix" values="0 0 0 0 0.996078 0 0 0 0 0.661176 0 0 0 0 0.0392157 0 0 0 1 0"/>
<feBlend mode="normal" in2="BackgroundImageFix" result="effect1_dropShadow_1448_836"/>
<feBlend mode="normal" in="SourceGraphic" in2="effect1_dropShadow_1448_836" result="shape"/>
</filter>
<filter id="filter1_d_1448_836" x="1046.49" y="22.8281" width="299.125" height="152.234" filterUnits="userSpaceOnUse" color-interpolation-filters="sRGB">
<feFlood flood-opacity="0" result="BackgroundImageFix"/>
<feColorMatrix in="SourceAlpha" type="matrix" values="0 0 0 0 0 0 0 0 0 0 0 0 0 0 0 0 0 0 127 0" result="hardAlpha"/>
<feOffset dy="8"/>
<feComposite in2="hardAlpha" operator="out"/>
<feColorMatrix type="matrix" values="0 0 0 0 0.996078 0 0 0 0 0.661176 0 0 0 0 0.0392157 0 0 0 1 0"/>
<feBlend mode="normal" in2="BackgroundImageFix" result="effect1_dropShadow_1448_836"/>
<feBlend mode="normal" in="SourceGraphic" in2="effect1_dropShadow_1448_836" result="shape"/>
</filter>
</defs>
</svg>
