<svg width="935" height="818" viewBox="0 0 935 818" fill="none" xmlns="http://www.w3.org/2000/svg">
<path d="M340.624 596.528C288.628 614.902 153.358 615.293 395.749 636.796C524.499 651.29 35.6816 663.381 247.057 681.768C552.406 701.001 207.414 704.249 99.0125 716.957C62.2694 721.265 191.322 725.455 329.055 731.242C533.716 739.84 326.516 744.997 245.826 748.565C168.412 751.987 -66.0821 763.091 20.8726 767.491C210.544 777.089 290.973 783.403 290.973 783.403C369.555 789.658 304.422 804.202 54.8381 810.77" stroke="#343434" stroke-width="3" stroke-linecap="round"/>
<path d="M340.659 597.689C340.346 597.689 340.034 597.689 339.799 597.454C339.643 597.454 339.486 597.298 339.33 597.141C338.861 596.672 338.626 595.968 338.783 595.265L375.532 462.966V462.576C375.61 462.576 420.648 300.409 420.648 300.409L420.804 299.939L421.195 299.314L421.352 299.079L659.676 58.8L676.253 42.1455C693.298 24.9436 715.739 13.6059 739.587 10.2438C748.344 8.99271 757.102 8.36719 765.703 8.36719C808.864 8.36719 846.395 23.9271 877.28 54.4996C923.882 100.71 927.713 154.662 922.787 191.802C921.223 203.687 917.627 215.259 912.31 226.128C906.915 236.996 899.956 246.926 891.433 255.449L636.454 512.696H636.376C636.376 512.774 636.219 512.93 636.219 512.93H636.063C636.063 513.008 636.063 513.008 636.063 513.087H635.906L635.515 513.243L474.052 559.61C473.818 559.61 473.505 559.766 473.505 559.766L435.035 570.791L341.207 597.767H341.128H340.737L340.659 597.689ZM388.668 463.592C388.355 463.592 388.121 463.592 387.808 463.592H387.495C387.261 463.592 386.948 463.67 386.635 463.67C385.775 463.748 384.915 463.827 384.055 463.983L378.894 464.687L348.4 574.544L343.239 592.997L471.237 556.248L471.863 551.087C471.941 550.227 472.019 549.367 472.097 548.507C472.097 548.272 472.097 547.96 472.097 547.647V547.334C472.097 547.099 472.097 546.787 472.176 546.552C472.176 546.083 472.176 545.536 472.254 545.066C472.254 544.597 472.254 544.128 472.254 543.659C472.254 543.034 472.254 542.408 472.254 541.704C472.254 541.313 472.254 540.766 472.254 540.297C472.566 517.856 465.217 499.012 450.439 484.391C436.13 470.238 417.99 463.045 396.409 463.045C374.828 463.045 395.002 463.045 394.298 463.045C393.907 463.045 393.438 463.045 392.969 463.045C392.343 463.045 391.718 463.045 391.092 463.123C390.623 463.123 390.154 463.123 389.685 463.201C389.215 463.201 388.668 463.201 388.199 463.279L388.668 463.592ZM396.722 459.448C398.442 459.448 400.162 459.448 401.726 459.604C402.43 459.604 403.055 459.604 403.681 459.761C405.557 459.917 407.356 460.073 409.154 460.308C410.483 460.464 411.813 460.699 413.142 460.934C428.78 463.827 442.385 470.864 453.488 481.889C464.591 492.913 471.785 506.44 474.756 522.078C475.929 528.021 476.398 534.198 476.398 540.531C476.398 540.844 476.398 541.157 476.398 541.548C476.398 542.017 476.398 542.408 476.398 542.799C476.398 543.268 476.398 543.737 476.398 544.128L475.929 554.997L511.662 544.754L548.802 534.12L633.092 509.881L626.367 414.645C626.054 409.875 625.038 405.106 623.396 400.57V400.414L623.318 400.336C621.441 395.175 618.783 390.328 615.42 385.949C605.725 373.517 595.169 361.553 583.91 350.372C572.65 339.269 560.609 328.792 548.099 319.174C543.954 316.047 539.419 313.545 534.493 311.668C534.337 311.668 534.102 311.512 534.102 311.512H533.946L533.555 311.277H533.164C528.707 309.635 524.094 308.775 519.403 308.462L424.088 302.598L380.302 460.23L391.17 459.604C391.561 459.604 392.03 459.604 392.421 459.604C392.89 459.604 393.281 459.604 393.751 459.604H393.829C394.141 459.604 394.454 459.604 394.767 459.604H394.845C395.314 459.604 395.783 459.604 396.253 459.604H396.8L396.722 459.448ZM630.042 413.159C630.042 413.55 630.042 413.863 630.12 414.254L636.688 506.988L790.254 352.014V349.043V348.105V346.385C790.411 345.681 790.489 344.977 790.489 344.195C790.489 343.961 790.489 343.726 790.489 343.491C790.489 343.491 790.567 341.537 790.567 341.459C790.567 341.302 790.567 341.068 790.567 340.911C790.567 340.755 790.567 339.113 790.567 339.113C790.567 339.113 790.567 337.784 790.567 337.627V337.236C790.567 337.08 790.567 336.923 790.567 336.767C790.567 334.969 790.567 333.249 790.567 331.528C790.567 331.216 790.567 330.903 790.567 330.512C790.567 327.697 790.411 324.804 790.333 322.067C790.333 321.442 790.333 320.816 790.254 320.191C790.098 318.08 790.02 316.125 789.863 314.248C789.863 313.857 789.863 313.466 789.785 313.075C789.785 312.763 789.707 311.903 789.707 311.903C789.707 311.433 789.707 311.042 789.551 310.651C789.082 306.038 788.534 301.425 787.83 296.89C787.83 296.577 787.752 296.186 787.674 295.717C787.674 295.483 787.596 295.248 787.518 294.935V294.622C787.127 292.589 786.736 290.635 786.423 288.68L785.954 286.334C785.954 285.943 785.797 285.474 785.719 285.083C785.016 281.799 784.234 278.515 783.374 275.231C783.217 274.527 782.983 273.746 782.826 273.042C782.592 272.104 782.357 271.165 782.044 270.227C781.966 269.836 781.81 269.445 781.653 268.976C781.419 268.194 781.184 267.412 780.95 266.63C780.793 266.161 780.637 265.692 780.481 265.145C780.324 264.754 780.246 264.285 780.09 263.894C779.933 263.424 779.777 263.033 779.62 262.564L775.555 250.601L627.384 400.101L628.087 403.464V403.62L628.322 404.402V404.558V404.636C628.322 404.793 628.4 405.027 628.478 405.184V405.34C628.635 405.809 628.713 406.2 628.791 406.669C628.791 406.904 628.791 407.06 628.869 407.139V407.295C628.947 407.529 629.026 407.842 629.026 408.077C629.104 408.546 629.182 408.859 629.26 409.25C629.26 409.719 629.417 410.188 629.495 410.579C629.495 410.892 629.573 411.283 629.651 411.674V411.986C629.651 412.299 629.729 412.534 629.808 412.846V413.003L630.042 413.159ZM621.285 387.747L626.602 395.645L773.991 246.926L771.723 242C771.489 241.453 771.176 240.827 770.941 240.28C770.159 238.716 769.378 237.074 768.439 235.354L767.892 234.259C767.501 233.478 767.11 232.774 766.719 231.992C766.484 231.601 766.25 231.132 766.015 230.741C765.781 230.272 765.468 229.803 765.233 229.333C764.999 228.942 764.842 228.63 764.686 228.317C764.452 227.926 764.295 227.535 764.061 227.222C763.748 226.675 763.435 226.128 763.122 225.658C761.558 223.078 759.916 220.498 758.196 217.996C757.962 217.683 757.727 217.292 757.493 216.979C757.18 216.51 756.867 216.119 756.632 215.728C756.32 215.337 756.085 214.946 755.772 214.555C755.303 213.93 754.834 213.226 754.287 212.522C753.896 212.053 753.583 211.506 753.192 211.037C752.801 210.49 752.41 210.02 752.019 209.473C751.159 208.378 750.299 207.362 749.517 206.345C749.126 205.876 748.657 205.329 748.266 204.782C747.719 204.156 747.25 203.531 746.702 202.983C746.39 202.67 746.077 202.28 745.764 201.889C745.217 201.263 744.669 200.638 744.122 200.012C743.731 199.621 743.34 199.152 742.949 198.761C742.558 198.37 742.089 197.901 741.698 197.432C740.76 196.493 739.822 195.477 738.805 194.46C737.789 193.522 736.85 192.506 735.834 191.567C735.365 191.098 734.896 190.707 734.426 190.316C734.035 189.925 733.566 189.534 733.175 189.144C732.55 188.596 732.002 188.049 731.377 187.58L730.282 186.641C729.735 186.172 729.188 185.703 728.562 185.234H728.484C727.937 184.687 727.467 184.296 726.92 183.827C725.904 183.045 724.809 182.185 723.792 181.324C723.245 180.934 722.698 180.543 722.229 180.152C721.76 179.761 721.29 179.448 720.743 179.057C720.039 178.51 719.336 178.04 718.632 177.571C718.319 177.337 717.85 177.024 717.459 176.789C717.068 176.477 716.599 176.164 716.208 175.929C715.817 175.695 715.504 175.46 715.113 175.226C712.611 173.505 710.031 171.863 707.372 170.378C706.903 170.065 706.356 169.752 705.809 169.44C705.418 169.205 705.027 168.97 704.714 168.814C704.401 168.658 704.088 168.423 703.698 168.267C703.228 167.954 702.681 167.719 702.212 167.485C701.821 167.25 701.43 167.016 700.961 166.859C700.257 166.468 699.475 166.077 698.772 165.686L697.677 165.139C695.957 164.279 694.236 163.419 692.673 162.715C692.125 162.481 691.578 162.168 690.952 161.933L686.026 159.666L538.481 308.54L546.769 313.701C547.082 313.935 547.473 314.17 547.786 314.405C548.098 314.639 548.411 314.796 548.724 315.03C549.037 315.265 549.35 315.499 549.662 315.734C549.975 316.047 550.288 316.281 550.679 316.516C563.346 326.133 575.543 336.767 586.881 348.027C598.219 359.286 608.931 371.405 618.704 383.994C619.252 384.776 619.799 385.402 620.268 386.105C620.503 386.418 620.659 386.653 620.816 386.887L620.972 387.122V387.278C621.207 387.435 621.363 387.669 621.441 387.825C621.441 387.982 621.519 388.06 621.598 388.138L621.285 387.747ZM794.711 328.792L795.259 347.01L871.729 269.836L871.963 267.099C871.963 266.943 871.963 266.787 871.963 266.708C871.963 266.552 871.963 266.318 871.963 266.161C871.963 266.161 871.963 265.379 871.963 265.145V264.128L872.12 261.626C872.12 261.47 872.12 261.235 872.12 261.079V258.42C872.198 258.42 872.276 256.387 872.276 256.387C872.276 256.231 872.276 255.996 872.276 255.84V252.869C872.276 251.149 872.276 249.428 872.276 247.63C872.276 247.63 872.276 247.083 872.276 246.848C872.276 246.848 872.276 245.753 872.276 245.519V243.33C872.276 242.469 872.276 241.609 872.198 240.671C872.198 239.107 872.042 237.543 871.963 235.98C871.963 235.354 871.885 234.65 871.807 233.947V233.008C871.729 232.539 871.651 231.992 871.651 231.523V231.21C871.572 230.506 871.494 229.881 871.416 229.177V228.082C871.182 226.91 871.103 225.658 870.947 224.486C870.869 223.704 870.791 222.844 870.634 221.984C870.321 219.481 869.93 216.901 869.618 214.477C863.05 172.645 846.395 138.242 820.045 112.126C787.127 79.4423 745.608 67.6356 716.677 63.4133C705.496 61.7713 694.08 60.9894 682.742 60.9894C671.405 60.9894 679.693 60.9894 678.207 60.9894H676.878C676.409 60.9894 675.94 60.9894 675.471 60.9894H675.549H674.923H674.454H674.298H673.516C673.281 60.9894 672.969 60.9894 672.734 60.9894H672.109C671.483 60.9894 670.779 61.0676 670.154 61.1457H670.232H669.294C669.294 61.1457 669.137 61.1457 669.059 61.1457C668.903 61.1457 668.746 61.1457 668.59 61.1457H667.026C667.026 61.2239 666.87 61.3021 666.87 61.3021L664.915 61.4585H664.524L661.709 62.084L659.833 63.8042L591.494 132.768L578.124 146.217L426.825 298.923L519.481 304.631C519.872 304.631 520.263 304.631 520.654 304.709H521.514C521.826 304.787 522.139 304.865 522.374 304.865C523.078 304.865 523.703 305.022 524.329 305.1L525.189 305.256L526.049 305.413C526.205 305.413 526.44 305.413 526.596 305.491H526.831C527.378 305.647 527.847 305.725 528.395 305.882C528.707 305.882 529.02 306.038 529.255 306.116L529.646 306.195H529.724C530.271 306.273 530.74 306.351 531.288 306.351H534.572L682.039 157.555L669.997 153.567C669.528 153.41 669.059 153.254 668.668 153.176C668.277 153.02 667.808 152.941 667.417 152.785C666.948 152.629 666.401 152.472 665.932 152.316C665.15 152.081 664.368 151.847 663.586 151.612C663.195 151.534 662.726 151.378 662.335 151.221C661.475 150.987 660.536 150.752 659.598 150.517C658.894 150.361 658.112 150.126 657.409 149.97C654.125 149.188 650.763 148.406 647.479 147.703C647.088 147.624 646.618 147.546 646.228 147.468C645.837 147.468 645.446 147.312 645.055 147.233C644.664 147.155 644.273 147.077 643.882 146.999C641.927 146.608 639.972 146.295 637.939 145.982C637.939 145.982 637.001 145.826 636.688 145.826C636.376 145.826 635.985 145.748 635.594 145.67C631.137 145.044 626.445 144.497 621.832 144.106C621.441 144.106 621.05 144.106 620.581 144.028C620.19 144.028 619.799 144.028 619.408 143.949C619.017 143.949 618.626 143.949 618.235 143.871C616.124 143.715 614.169 143.637 612.215 143.48C611.589 143.48 610.964 143.48 610.338 143.402C607.445 143.324 604.552 143.246 601.815 143.246H600.721C599.079 143.246 597.358 143.246 595.638 143.246H593.371L591.651 143.402V139.102L603.692 139.336H604.708C604.943 139.336 605.178 139.336 605.412 139.336H608.618C608.931 139.414 610.885 139.493 610.885 139.493H612.997C614.169 139.649 615.342 139.727 616.515 139.805C617.297 139.805 618.001 139.884 618.783 139.962H620.19C620.19 140.04 622.223 140.274 622.223 140.274C622.301 140.274 622.458 140.274 622.536 140.274H622.692C623.083 140.274 623.474 140.353 623.787 140.353H624.021C624.412 140.353 624.725 140.431 625.116 140.509H625.194C625.663 140.509 626.054 140.587 626.445 140.665H626.68C627.071 140.665 627.384 140.744 627.775 140.822H627.853C628.791 140.9 629.729 141.056 630.668 141.135C631.371 141.213 632.075 141.291 632.779 141.369H632.857C633.404 141.369 633.873 141.526 634.421 141.604L635.281 141.76L635.828 141.916H636.376C637.079 141.995 637.705 142.151 638.408 142.229C639.816 142.464 641.302 142.698 642.787 142.933C643.334 143.011 643.804 143.089 644.195 143.168H644.429C644.82 143.246 645.211 143.324 645.602 143.402C647.088 143.715 648.573 143.949 650.059 144.262C650.45 144.34 650.919 144.419 651.388 144.575H651.935C652.717 144.888 653.577 145.044 654.359 145.2C654.75 145.279 655.767 145.513 655.767 145.513C658.191 146.061 660.615 146.686 663.038 147.39C663.038 147.39 664.68 147.859 664.759 147.859H664.993C665.384 148.015 665.853 148.172 666.244 148.25H666.479C666.948 148.406 667.339 148.563 667.808 148.719C669.137 149.11 670.388 149.501 671.639 149.892L673.672 150.596C673.907 150.674 674.142 150.752 674.376 150.83H674.532C674.767 150.987 675.08 151.065 675.314 151.143H675.393C675.627 151.221 675.784 151.299 676.018 151.378L676.487 151.534C679.693 152.707 682.977 153.88 686.026 155.209C707.294 163.966 725.904 176.164 741.307 191.489C756.789 206.815 769.143 225.346 778.057 246.457C779.386 249.507 780.637 252.791 781.81 255.996L781.966 256.387C781.966 256.622 782.123 256.778 782.201 257.013V257.169C782.357 257.404 782.435 257.638 782.514 257.951V258.107C782.67 258.342 782.748 258.577 782.826 258.889L783.139 259.671L783.53 260.844C783.999 262.095 784.39 263.424 784.781 264.676C784.937 265.066 785.25 266.239 785.25 266.239C785.407 266.63 785.485 267.021 785.563 267.412L786.188 269.445C786.892 271.869 787.518 274.293 788.143 276.717C788.221 277.264 788.378 277.655 788.456 278.046C788.691 278.906 788.847 279.688 789.003 280.548V280.783V280.939V281.095C789.081 281.565 789.238 281.956 789.316 282.425C789.629 283.91 789.942 285.318 790.254 286.803C790.333 287.194 790.567 288.211 790.567 288.211C790.645 288.68 790.723 289.149 790.802 289.618C791.114 291.104 791.349 292.589 791.584 293.997C791.662 294.622 791.818 295.326 791.896 295.952V296.264L792.053 296.89L792.209 297.985C792.287 298.532 792.366 299.001 792.444 299.548C792.522 300.33 792.678 301.034 792.756 301.738C792.913 302.676 792.991 303.614 793.069 304.553C793.069 305.022 793.147 305.491 793.226 305.882V306.038C793.226 306.429 793.304 306.742 793.382 307.133C793.382 307.602 793.46 307.993 793.538 308.384V308.54C793.538 308.931 793.617 309.322 793.695 309.713C793.695 309.948 793.695 310.026 793.695 310.182L793.851 312.293L794.008 313.779C794.008 314.483 794.086 315.187 794.164 315.89C794.242 317.141 794.32 318.314 794.398 319.487V321.442C794.477 321.442 794.555 322.849 794.555 322.849C794.555 323.24 794.555 323.631 794.555 324.022C794.555 324.96 794.633 327.071 794.633 327.071V328.792H794.711ZM765.468 12.0421C757.102 12.0421 748.579 12.6677 740.134 13.8405C717.615 17.0463 696.269 27.602 680.006 43.5529L666.479 56.7671L685.401 56.9235C686.026 56.9235 686.73 56.9235 687.434 56.9235H687.512C687.825 56.9235 688.059 56.9235 688.372 56.9235C689.076 56.9235 689.78 56.9235 690.483 56.9235H692.751C693.298 57.0017 693.846 57.0798 694.393 57.0798C695.331 57.0798 696.348 57.158 697.286 57.2362C697.911 57.2362 698.537 57.2362 699.162 57.3926H699.319C700.023 57.3926 700.726 57.4708 701.43 57.549H701.508C701.821 57.549 702.212 57.549 702.525 57.6272H702.603C702.994 57.6272 703.385 57.6272 703.698 57.7054H704.792C705.261 57.8617 706.591 57.9399 706.747 58.0181H706.903C708.076 58.1745 709.249 58.2527 710.422 58.4091C711.36 58.4873 712.298 58.6437 713.237 58.7218H713.315C713.784 58.7218 714.331 58.8782 714.801 58.9564H715.27C715.973 59.1128 716.677 59.191 717.381 59.3474C736.147 62.084 753.896 66.9318 770.003 73.8908C790.176 82.5699 808.004 94.3767 822.86 109.155C837.716 123.933 849.757 141.604 858.593 161.699C865.63 177.806 870.712 195.477 873.605 214.164C873.762 215.025 873.84 215.885 873.996 216.745C873.996 217.214 874.231 218.387 874.231 218.387C874.387 219.325 874.465 220.263 874.622 221.202C874.778 222.374 874.935 223.547 875.013 224.642V225.424C875.169 225.893 875.169 226.284 875.247 226.753C875.247 227.144 875.247 227.457 875.326 227.691V228.082C875.404 228.708 875.482 229.412 875.56 230.037C875.56 230.819 875.717 231.445 875.717 232.148V232.383C875.717 233.008 875.795 233.634 875.873 234.181C875.873 235.198 876.029 236.136 876.029 237.074C876.029 237.7 876.029 238.325 876.107 238.873V240.984C876.264 241.609 876.264 242.313 876.264 243.017C876.264 243.329 876.264 243.642 876.264 243.955C876.264 244.737 876.264 245.441 876.264 246.066L876.655 264.91L889.713 251.305C905.507 234.885 915.906 213.461 918.878 190.942C919.972 182.732 920.52 174.444 920.52 166.312C920.363 123.776 904.882 86.9486 874.544 56.8453C844.362 26.9765 807.691 11.8076 765.39 11.8076L765.468 12.0421Z" fill="#343434"/>
<path d="M591.884 139.492C591.884 139.492 583.752 139.649 582.814 140.196C581.876 140.743 581.094 143.949 581.094 143.949C581.094 143.949 590.789 143.793 591.884 143.715C592.979 143.636 591.884 139.414 591.884 139.414V139.492Z" fill="#343434"/>
</svg>
