<svg width="586" height="590" viewBox="0 0 586 590" fill="none" xmlns="http://www.w3.org/2000/svg">
<path d="M583.935 589.689C584.247 589.689 584.56 589.689 584.795 589.454C584.951 589.454 585.107 589.298 585.264 589.141C585.733 588.672 585.968 587.968 585.811 587.265L549.062 454.966V454.576C548.983 454.576 503.946 292.409 503.946 292.409L503.789 291.939L503.398 291.314L503.242 291.079L264.917 50.8L248.341 34.1455C231.296 16.9436 208.855 5.60595 185.007 2.24376C176.249 0.992712 167.492 0.367188 158.891 0.367188C115.73 0.367188 78.1986 15.9271 47.3134 46.4996C0.711853 92.7101 -3.11945 146.662 1.80652 183.802C3.37036 195.687 6.9671 207.259 12.2841 218.128C17.6792 228.996 24.6382 238.926 33.1609 247.449L288.14 504.696H288.218C288.218 504.774 288.375 504.93 288.375 504.93H288.531C288.531 505.008 288.531 505.008 288.531 505.087H288.687L289.078 505.243L450.542 551.61C450.776 551.61 451.089 551.766 451.089 551.766L489.559 562.791L583.387 589.767H583.465H583.856L583.935 589.689ZM535.926 455.592C536.238 455.592 536.473 455.592 536.786 455.592H537.098C537.333 455.592 537.646 455.67 537.959 455.67C538.819 455.748 539.679 455.827 540.539 455.983L545.699 456.687L576.194 566.544L581.354 584.997L453.356 548.248L452.731 543.087C452.653 542.227 452.575 541.367 452.496 540.507C452.496 540.272 452.496 539.96 452.496 539.647V539.334C452.496 539.099 452.496 538.787 452.418 538.552C452.418 538.083 452.418 537.536 452.34 537.066C452.34 536.597 452.34 536.128 452.34 535.659C452.34 535.034 452.34 534.408 452.34 533.704C452.34 533.313 452.34 532.766 452.34 532.297C452.027 509.856 459.377 491.012 474.155 476.391C488.464 462.238 506.604 455.045 528.185 455.045C549.765 455.045 529.592 455.045 530.296 455.045C530.687 455.045 531.156 455.045 531.625 455.045C532.251 455.045 532.876 455.045 533.502 455.123C533.971 455.123 534.44 455.123 534.909 455.201C535.378 455.201 535.926 455.201 536.395 455.279L535.926 455.592ZM527.872 451.448C526.152 451.448 524.432 451.448 522.868 451.604C522.164 451.604 521.539 451.604 520.913 451.761C519.036 451.917 517.238 452.073 515.44 452.308C514.11 452.464 512.781 452.699 511.452 452.934C495.814 455.827 482.209 462.864 471.106 473.889C460.003 484.913 452.809 498.44 449.838 514.078C448.665 520.021 448.196 526.198 448.196 532.531C448.196 532.844 448.196 533.157 448.196 533.548C448.196 534.017 448.196 534.408 448.196 534.799C448.196 535.268 448.196 535.737 448.196 536.128L448.665 546.997L412.932 536.754L375.792 526.12L291.502 501.881L298.227 406.645C298.539 401.875 299.556 397.106 301.198 392.57V392.414L301.276 392.336C303.153 387.175 305.811 382.328 309.173 377.949C318.869 365.517 329.425 353.553 340.684 342.372C351.943 331.269 363.985 320.792 376.495 311.174C380.639 308.047 385.174 305.545 390.1 303.668C390.257 303.668 390.491 303.512 390.491 303.512H390.648L391.039 303.277H391.43C395.886 301.635 400.5 300.775 405.191 300.462L500.505 294.598L544.292 452.23L533.424 451.604C533.033 451.604 532.563 451.604 532.172 451.604C531.703 451.604 531.312 451.604 530.843 451.604H530.765C530.452 451.604 530.14 451.604 529.827 451.604H529.749C529.279 451.604 528.81 451.604 528.341 451.604H527.794L527.872 451.448ZM294.552 405.159C294.552 405.55 294.552 405.863 294.473 406.254L287.905 498.988L134.339 344.014V341.043V340.105V338.385C134.183 337.681 134.105 336.977 134.105 336.195C134.105 335.961 134.105 335.726 134.105 335.491C134.105 335.491 134.027 333.537 134.027 333.459C134.027 333.302 134.027 333.068 134.027 332.911C134.027 332.755 134.027 331.113 134.027 331.113C134.027 331.113 134.027 329.784 134.027 329.627V329.236C134.027 329.08 134.027 328.923 134.027 328.767C134.027 326.969 134.027 325.249 134.027 323.528C134.027 323.216 134.027 322.903 134.027 322.512C134.027 319.697 134.183 316.804 134.261 314.067C134.261 313.442 134.261 312.816 134.339 312.191C134.496 310.08 134.574 308.125 134.73 306.248C134.73 305.857 134.73 305.466 134.809 305.075C134.809 304.763 134.887 303.903 134.887 303.903C134.887 303.433 134.887 303.042 135.043 302.651C135.512 298.038 136.06 293.425 136.763 288.89C136.763 288.577 136.841 288.186 136.92 287.717C136.92 287.483 136.998 287.248 137.076 286.935V286.622C137.467 284.589 137.858 282.635 138.171 280.68L138.64 278.334C138.64 277.943 138.796 277.474 138.874 277.083C139.578 273.799 140.36 270.515 141.22 267.231C141.377 266.527 141.611 265.746 141.767 265.042C142.002 264.104 142.237 263.165 142.549 262.227C142.628 261.836 142.784 261.445 142.94 260.976C143.175 260.194 143.409 259.412 143.644 258.63C143.8 258.161 143.957 257.692 144.113 257.145C144.27 256.754 144.348 256.285 144.504 255.894C144.661 255.424 144.817 255.033 144.973 254.564L149.039 242.601L297.21 392.101L296.506 395.464V395.62L296.272 396.402V396.558V396.636C296.272 396.793 296.194 397.027 296.115 397.184V397.34C295.959 397.809 295.881 398.2 295.803 398.669C295.803 398.904 295.803 399.06 295.725 399.139V399.295C295.646 399.529 295.568 399.842 295.568 400.077C295.49 400.546 295.412 400.859 295.334 401.25C295.334 401.719 295.177 402.188 295.099 402.579C295.099 402.892 295.021 403.283 294.943 403.674V403.986C294.943 404.299 294.864 404.534 294.786 404.846V405.003L294.552 405.159ZM303.309 379.747L297.992 387.645L150.603 238.926L152.871 234C153.105 233.453 153.418 232.827 153.652 232.28C154.434 230.716 155.216 229.074 156.155 227.354L156.702 226.259C157.093 225.478 157.484 224.774 157.875 223.992C158.109 223.601 158.344 223.132 158.578 222.741C158.813 222.272 159.126 221.803 159.36 221.333C159.595 220.942 159.751 220.63 159.908 220.317C160.142 219.926 160.299 219.535 160.533 219.222C160.846 218.675 161.159 218.128 161.471 217.658C163.035 215.078 164.677 212.498 166.397 209.996C166.632 209.683 166.867 209.292 167.101 208.979C167.414 208.51 167.727 208.119 167.961 207.728C168.274 207.337 168.509 206.946 168.821 206.555C169.291 205.93 169.76 205.226 170.307 204.522C170.698 204.053 171.011 203.506 171.402 203.037C171.793 202.49 172.184 202.02 172.575 201.473C173.435 200.378 174.295 199.362 175.077 198.345C175.468 197.876 175.937 197.329 176.328 196.782C176.875 196.156 177.344 195.531 177.891 194.983C178.204 194.67 178.517 194.28 178.83 193.889C179.377 193.263 179.924 192.638 180.472 192.012C180.863 191.621 181.254 191.152 181.645 190.761C182.036 190.37 182.505 189.901 182.896 189.432C183.834 188.493 184.772 187.477 185.789 186.46C186.805 185.522 187.743 184.506 188.76 183.567C189.229 183.098 189.698 182.707 190.167 182.316C190.558 181.925 191.027 181.534 191.418 181.144C192.044 180.596 192.591 180.049 193.217 179.58L194.311 178.641C194.859 178.172 195.406 177.703 196.032 177.234H196.11C196.657 176.687 197.126 176.296 197.674 175.827C198.69 175.045 199.785 174.185 200.801 173.324C201.349 172.934 201.896 172.543 202.365 172.152C202.834 171.761 203.303 171.448 203.851 171.057C204.554 170.51 205.258 170.04 205.962 169.571C206.275 169.337 206.744 169.024 207.135 168.789C207.526 168.477 207.995 168.164 208.386 167.929C208.777 167.695 209.089 167.46 209.48 167.226C211.983 165.505 214.563 163.863 217.221 162.378C217.69 162.065 218.238 161.752 218.785 161.44C219.176 161.205 219.567 160.97 219.88 160.814C220.193 160.658 220.505 160.423 220.896 160.267C221.365 159.954 221.913 159.719 222.382 159.485C222.773 159.25 223.164 159.016 223.633 158.859C224.337 158.468 225.119 158.077 225.822 157.686L226.917 157.139C228.637 156.279 230.357 155.419 231.921 154.715C232.468 154.481 233.016 154.168 233.641 153.933L238.567 151.666L386.113 300.54L377.824 305.701C377.512 305.935 377.121 306.17 376.808 306.405C376.495 306.639 376.182 306.796 375.87 307.03C375.557 307.265 375.244 307.499 374.931 307.734C374.619 308.047 374.306 308.281 373.915 308.516C361.248 318.133 349.05 328.767 337.713 340.027C326.375 351.286 315.663 363.405 305.889 375.994C305.342 376.776 304.795 377.402 304.325 378.105C304.091 378.418 303.935 378.653 303.778 378.887L303.622 379.122V379.278C303.387 379.435 303.231 379.669 303.153 379.825C303.153 379.982 303.074 380.06 302.996 380.138L303.309 379.747ZM129.883 320.792L129.335 339.01L52.8649 261.836L52.6303 259.099C52.6303 258.943 52.6303 258.787 52.6303 258.708C52.6303 258.552 52.6303 258.318 52.6303 258.161C52.6303 258.161 52.6303 257.379 52.6303 257.145V256.128L52.474 253.626C52.474 253.47 52.474 253.235 52.474 253.079V250.42C52.3958 250.42 52.3176 248.387 52.3176 248.387C52.3176 248.231 52.3176 247.996 52.3176 247.84V244.869C52.3176 243.149 52.3176 241.428 52.3176 239.63C52.3176 239.63 52.3176 239.083 52.3176 238.848C52.3176 238.848 52.3176 237.753 52.3176 237.519V235.33C52.3176 234.469 52.3176 233.609 52.3958 232.671C52.3958 231.107 52.5521 229.543 52.6303 227.98C52.6303 227.354 52.7086 226.65 52.7867 225.947V225.008C52.8649 224.539 52.9431 223.992 52.9431 223.523V223.21C53.0213 222.506 53.0995 221.881 53.1777 221.177V220.082C53.4122 218.91 53.4905 217.658 53.6469 216.486C53.725 215.704 53.8032 214.844 53.9596 213.984C54.2723 211.481 54.6633 208.901 54.9761 206.477C61.5441 164.645 78.1986 130.242 104.549 104.126C137.467 71.4423 178.986 59.6356 207.917 55.4133C219.098 53.7713 230.514 52.9894 241.851 52.9894C253.189 52.9894 244.901 52.9894 246.386 52.9894H247.716C248.185 52.9894 248.654 52.9894 249.123 52.9894H249.045H249.67H250.139H250.296H251.078C251.312 52.9894 251.625 52.9894 251.86 52.9894H252.485C253.111 52.9894 253.814 53.0676 254.44 53.1457H254.362H255.3C255.3 53.1457 255.456 53.1457 255.535 53.1457C255.691 53.1457 255.847 53.1457 256.004 53.1457H257.568C257.568 53.2239 257.724 53.3021 257.724 53.3021L259.679 53.4585H260.07L262.885 54.084L264.761 55.8042L333.1 124.768L346.47 138.217L497.769 290.923L405.113 296.631C404.722 296.631 404.331 296.631 403.94 296.709H403.08C402.767 296.787 402.454 296.865 402.22 296.865C401.516 296.865 400.891 297.022 400.265 297.1L399.405 297.256L398.545 297.413C398.389 297.413 398.154 297.413 397.998 297.491H397.763C397.216 297.647 396.747 297.725 396.199 297.882C395.886 297.882 395.574 298.038 395.339 298.116L394.948 298.195H394.87C394.323 298.273 393.854 298.351 393.306 298.351H390.022L242.555 149.555L254.596 145.567C255.065 145.41 255.535 145.254 255.926 145.176C256.317 145.02 256.786 144.941 257.177 144.785C257.646 144.629 258.193 144.472 258.662 144.316C259.444 144.081 260.226 143.847 261.008 143.612C261.399 143.534 261.868 143.378 262.259 143.221C263.119 142.987 264.057 142.752 264.996 142.517C265.699 142.361 266.481 142.126 267.185 141.97C270.469 141.188 273.831 140.406 277.115 139.703C277.506 139.624 277.975 139.546 278.366 139.468C278.757 139.468 279.148 139.312 279.539 139.233C279.93 139.155 280.321 139.077 280.712 138.999C282.667 138.608 284.621 138.295 286.654 137.982C286.654 137.982 287.593 137.826 287.905 137.826C288.218 137.826 288.609 137.748 289 137.67C293.457 137.044 298.148 136.497 302.762 136.106C303.153 136.106 303.544 136.106 304.013 136.028C304.404 136.028 304.795 136.028 305.186 135.949C305.577 135.949 305.967 135.949 306.358 135.871C308.47 135.715 310.424 135.637 312.379 135.48C313.005 135.48 313.63 135.48 314.256 135.402C317.149 135.324 320.042 135.246 322.778 135.246H323.873C325.515 135.246 327.235 135.246 328.955 135.246H331.223L332.943 135.402V131.102L320.902 131.336H319.885C319.651 131.336 319.416 131.336 319.182 131.336H315.976C315.663 131.414 313.708 131.493 313.708 131.493H311.597C310.424 131.649 309.251 131.727 308.079 131.805C307.297 131.805 306.593 131.884 305.811 131.962H304.404C304.404 132.04 302.371 132.274 302.371 132.274C302.293 132.274 302.136 132.274 302.058 132.274H301.902C301.511 132.274 301.12 132.353 300.807 132.353H300.572C300.181 132.353 299.869 132.431 299.478 132.509H299.399C298.93 132.509 298.539 132.587 298.148 132.665H297.914C297.523 132.665 297.21 132.744 296.819 132.822H296.741C295.803 132.9 294.864 133.056 293.926 133.135C293.222 133.213 292.519 133.291 291.815 133.369H291.737C291.189 133.369 290.72 133.526 290.173 133.604L289.313 133.76L288.766 133.916H288.218C287.514 133.995 286.889 134.151 286.185 134.229C284.778 134.464 283.292 134.698 281.807 134.933C281.259 135.011 280.79 135.089 280.399 135.168H280.165C279.774 135.246 279.383 135.324 278.992 135.402C277.506 135.715 276.021 135.949 274.535 136.262C274.144 136.34 273.675 136.419 273.206 136.575H272.658C271.876 136.888 271.016 137.044 270.234 137.2C269.843 137.279 268.827 137.513 268.827 137.513C266.403 138.061 263.979 138.686 261.555 139.39C261.555 139.39 259.913 139.859 259.835 139.859H259.6C259.21 140.015 258.74 140.172 258.349 140.25H258.115C257.646 140.406 257.255 140.563 256.786 140.719C255.456 141.11 254.205 141.501 252.954 141.892L250.921 142.596C250.687 142.674 250.452 142.752 250.218 142.83H250.061C249.827 142.987 249.514 143.065 249.279 143.143H249.201C248.967 143.221 248.81 143.299 248.576 143.378L248.107 143.534C244.901 144.707 241.617 145.88 238.567 147.209C217.299 155.966 198.69 168.164 183.287 183.489C167.805 198.815 155.451 217.346 146.537 238.457C145.208 241.507 143.957 244.791 142.784 247.996L142.628 248.387C142.628 248.622 142.471 248.778 142.393 249.013V249.169C142.237 249.404 142.158 249.638 142.08 249.951V250.107C141.924 250.342 141.846 250.577 141.767 250.889L141.455 251.671L141.064 252.844C140.595 254.095 140.204 255.424 139.813 256.676C139.656 257.066 139.344 258.239 139.344 258.239C139.187 258.63 139.109 259.021 139.031 259.412L138.405 261.445C137.702 263.869 137.076 266.293 136.451 268.717C136.372 269.264 136.216 269.655 136.138 270.046C135.903 270.906 135.747 271.688 135.59 272.548V272.783V272.939V273.095C135.512 273.565 135.356 273.956 135.278 274.425C134.965 275.91 134.652 277.318 134.339 278.803C134.261 279.194 134.027 280.211 134.027 280.211C133.948 280.68 133.87 281.149 133.792 281.618C133.479 283.104 133.245 284.589 133.01 285.997C132.932 286.622 132.776 287.326 132.697 287.952V288.264L132.541 288.89L132.385 289.985C132.306 290.532 132.228 291.001 132.15 291.548C132.072 292.33 131.915 293.034 131.837 293.738C131.681 294.676 131.603 295.614 131.525 296.553C131.525 297.022 131.446 297.491 131.368 297.882V298.038C131.368 298.429 131.29 298.742 131.212 299.133C131.212 299.602 131.134 299.993 131.055 300.384V300.54C131.055 300.931 130.977 301.322 130.899 301.713C130.899 301.948 130.899 302.026 130.899 302.182L130.743 304.293L130.586 305.779C130.586 306.483 130.508 307.187 130.43 307.89C130.352 309.141 130.273 310.314 130.195 311.487V313.442C130.117 313.442 130.039 314.849 130.039 314.849C130.039 315.24 130.039 315.631 130.039 316.022C130.039 316.96 129.961 319.071 129.961 319.071V320.792H129.883ZM159.126 4.04214C167.492 4.04214 176.015 4.66766 184.459 5.84052C206.978 9.04633 228.324 19.602 244.588 35.5529L258.115 48.7671L239.193 48.9235C238.567 48.9235 237.864 48.9235 237.16 48.9235H237.082C236.769 48.9235 236.534 48.9235 236.222 48.9235C235.518 48.9235 234.814 48.9235 234.11 48.9235H231.843C231.296 49.0017 230.748 49.0798 230.201 49.0798C229.263 49.0798 228.246 49.158 227.308 49.2362C226.682 49.2362 226.057 49.2362 225.431 49.3926H225.275C224.571 49.3926 223.867 49.4708 223.164 49.549H223.086C222.773 49.549 222.382 49.549 222.069 49.6272H221.991C221.6 49.6272 221.209 49.6272 220.896 49.7054H219.802C219.332 49.8617 218.003 49.9399 217.847 50.0181H217.69C216.518 50.1745 215.345 50.2527 214.172 50.4091C213.234 50.4873 212.295 50.6437 211.357 50.7218H211.279C210.81 50.7218 210.262 50.8782 209.793 50.9564H209.324C208.62 51.1128 207.917 51.191 207.213 51.3474C188.447 54.084 170.698 58.9318 154.591 65.8908C134.418 74.5699 116.59 86.3767 101.734 101.155C86.8778 115.933 74.8365 133.604 66.0009 153.699C58.9638 169.806 53.8814 187.477 50.9883 206.164C50.832 207.025 50.7538 207.885 50.5974 208.745C50.5974 209.214 50.3629 210.387 50.3629 210.387C50.2065 211.325 50.1283 212.263 49.9719 213.202C49.8155 214.374 49.6591 215.547 49.5809 216.642V217.424C49.4246 217.893 49.4246 218.284 49.3464 218.753C49.3464 219.144 49.3464 219.457 49.2681 219.691V220.082C49.1899 220.708 49.1118 221.412 49.0336 222.037C49.0336 222.819 48.8772 223.445 48.8772 224.148V224.383C48.8772 225.008 48.799 225.634 48.7208 226.181C48.7208 227.198 48.5645 228.136 48.5645 229.074C48.5645 229.7 48.5645 230.325 48.4863 230.873V232.984C48.3299 233.609 48.3298 234.313 48.3298 235.017C48.3298 235.329 48.3298 235.642 48.3298 235.955C48.3298 236.737 48.3298 237.441 48.3298 238.066L47.9389 256.91L34.8812 243.305C19.0867 226.885 8.68732 205.461 5.71606 182.942C4.6214 174.732 4.0741 166.444 4.0741 158.312C4.23047 115.776 19.7122 78.9486 50.05 48.8453C80.2316 18.9765 116.903 3.80757 159.204 3.80757L159.126 4.04214Z" fill="#343434"/>
<path d="M332.71 131.492C332.71 131.492 340.842 131.649 341.78 132.196C342.718 132.743 343.5 135.949 343.5 135.949C343.5 135.949 333.804 135.793 332.71 135.715C331.615 135.636 332.71 131.414 332.71 131.414V131.492Z" fill="#343434"/>
</svg>
