<svg width="687" height="444" viewBox="0 0 687 444" fill="none" xmlns="http://www.w3.org/2000/svg">
<path d="M482.004 420.33C413.54 439.644 255.998 443.169 149.127 401.44C20.4582 351.203 -32.0962 226.872 18.2409 137.059C85.2677 17.4676 330.547 -31.7567 501.464 22.512C612.765 57.8496 691.064 136.608 685.922 223.186C681.115 304.189 621.866 395.681 501.464 426.068C336.6 467.678 93.1478 421.155 25.024 309.541C-47.6082 145.509 93.2544 30.0141 260.479 7.17891C293.675 0.808399 425.777 -3.27513 518.203 28.2433C684.229 84.8618 744.457 278.176 610.981 376.842C468.537 482.144 144.415 455.283 54.6685 347.753C-5.49987 275.672 7.57055 196.835 30.2991 164.943" stroke="#7F7F7F" stroke-width="2" stroke-miterlimit="10"/>
</svg>
